<?xml version="1.0" encoding="utf-8"?>
<!-- Generator: Adobe Illustrator 25.4.1, SVG Export Plug-In . SVG Version: 6.00 Build 0)  -->
<svg version="1.1" id="Layer_1" xmlns="http://www.w3.org/2000/svg" xmlns:xlink="http://www.w3.org/1999/xlink" x="0px" y="0px"
	 viewBox="0 0 595.28 167.18" style="enable-background:new 0 0 595.28 167.18;" xml:space="preserve">
<style type="text/css">
	.st0{fill:#010101;}
</style>
<g>
	<g>
		<path class="st0" d="M391.05,65.7c-0.46-0.02-0.92-0.03-1.38-0.05c-0.43-0.02-0.86-0.09-1.29-0.14c-0.45-0.05-0.91-0.1-1.36-0.15
			c-0.42-0.04-0.84-0.15-1.25-0.22c-0.41-0.07-0.83-0.15-1.24-0.22c-1.21-0.21-2.41-0.56-3.58-0.94c-2.2-0.71-4.33-1.68-6.32-2.87
			c-0.99-0.59-1.94-1.28-2.86-1.98c-0.98-0.74-1.9-1.56-2.78-2.41c-1.75-1.68-3.23-3.63-4.49-5.7c-1.26-2.05-2.17-4.29-2.71-6.63
			c-0.53-2.29-0.55-4.66-0.24-6.98c0.31-2.35,1.09-4.61,2.1-6.74c2.04-4.28,5.07-8.11,8.68-11.18c1.49-1.26,3.1-2.43,4.82-3.36
			c0.8-0.44,1.59-0.9,2.42-1.28c0.82-0.37,1.62-0.76,2.46-1.06c0.53-0.19,1.06-0.39,1.58-0.58c0.33-0.12,0.68-0.21,1.02-0.31
			c0.52-0.15,1.03-0.3,1.55-0.45c0.36-0.1,0.72-0.17,1.09-0.26c0.43-0.1,0.86-0.2,1.29-0.3c0.48-0.11,0.96-0.18,1.44-0.27
			c0.93-0.17,1.86-0.3,2.79-0.43c0.31-0.04,0.61-0.08,0.92-0.1c0.53-0.04,1.06-0.11,1.59-0.12c0.45-0.01,0.9-0.01,1.35-0.02
			c0.43-0.01,0.86,0.02,1.29,0.04c0.74,0.03,1.48,0.1,2.21,0.23c0.47,0.08,0.92,0.2,1.38,0.34c0.18-0.04,0.37-0.04,0.56,0
			c3.28,0.71,6.56,1.49,9.71,2.65c1.56,0.58,3.06,1.29,4.52,2.09c0.74,0.41,1.47,0.84,2.16,1.32c0.74,0.52,1.45,1.06,2.14,1.64
			c1.38,1.15,2.58,2.51,3.71,3.9c1.02,1.27,1.92,2.67,2.67,4.11c0.42,0.81,0.82,1.63,1.16,2.48c0.34,0.86,0.62,1.73,0.86,2.62
			c0.22,0.82,0.36,1.65,0.44,2.49c0.05,0.54,0.05,1.08,0.07,1.61c0.02,0.45-0.01,0.92-0.05,1.38c-0.04,0.4-0.05,0.81-0.11,1.21
			c-0.07,0.46-0.12,0.92-0.22,1.37c-0.09,0.4-0.15,0.81-0.27,1.2c-0.14,0.44-0.25,0.9-0.42,1.33c-0.15,0.39-0.28,0.79-0.45,1.16
			c-0.2,0.44-0.39,0.89-0.62,1.32c-0.21,0.4-0.42,0.8-0.62,1.2c-0.42,0.8-0.92,1.55-1.41,2.3c-0.44,0.68-0.93,1.34-1.46,1.95
			c-0.3,0.35-0.59,0.72-0.91,1.05c-0.36,0.37-0.72,0.75-1.08,1.12c-0.54,0.56-1.13,1.09-1.71,1.6c-0.74,0.65-1.49,1.28-2.25,1.9
			c-0.64,0.52-1.32,1-1.99,1.49c-0.32,0.23-0.66,0.43-0.99,0.64c-0.34,0.22-0.67,0.45-1.02,0.65c-0.78,0.46-1.56,0.92-2.37,1.33
			c-0.44,0.23-0.88,0.45-1.33,0.68c-0.4,0.2-0.82,0.37-1.23,0.55c-0.39,0.17-0.78,0.35-1.17,0.52c-0.41,0.18-0.85,0.32-1.27,0.48
			c-0.38,0.14-0.75,0.29-1.13,0.43c-0.44,0.17-0.9,0.28-1.35,0.42c-0.4,0.13-0.8,0.25-1.19,0.38c-0.44,0.14-0.9,0.24-1.35,0.35
			c-0.47,0.12-0.94,0.24-1.41,0.35c-0.37,0.09-0.75,0.14-1.12,0.21c-0.5,0.09-1,0.18-1.5,0.28c-0.39,0.07-0.8,0.1-1.19,0.14
			c-0.5,0.05-1.01,0.11-1.51,0.16c-0.39,0.04-0.79,0.03-1.18,0.04c-0.49,0.02-0.99,0.03-1.48,0.05c-0.05,0-0.1,0-0.16,0
			C391.7,65.74,391.38,65.71,391.05,65.7z M392.21,62.53c0.41,0.01,0.82-0.03,1.23-0.04c0.35-0.01,0.7-0.02,1.05-0.04
			c0.81-0.09,1.63-0.18,2.45-0.26c0.81-0.15,1.63-0.3,2.45-0.45c0.44-0.08,0.87-0.22,1.31-0.33c0.43-0.11,0.86-0.22,1.29-0.32
			c0.62-0.2,1.25-0.39,1.87-0.59c0.5-0.16,0.98-0.34,1.47-0.53c0.53-0.2,1.07-0.39,1.59-0.62c0.62-0.28,1.24-0.55,1.85-0.83
			c0.65-0.33,1.3-0.66,1.95-0.99c0.27-0.14,0.53-0.31,0.79-0.46c0.33-0.19,0.66-0.38,1-0.58c0.77-0.5,1.54-1,2.28-1.54
			c0.38-0.28,0.76-0.54,1.12-0.84c0.42-0.34,0.83-0.68,1.25-1.01c0.6-0.53,1.2-1.05,1.78-1.6c0.62-0.59,1.22-1.2,1.81-1.82
			c0.31-0.37,0.63-0.73,0.94-1.1c0.15-0.18,0.28-0.38,0.42-0.56c0.15-0.2,0.3-0.4,0.45-0.61c0.36-0.55,0.72-1.1,1.05-1.67
			c0.34-0.59,0.66-1.19,0.98-1.8c0.17-0.37,0.34-0.75,0.51-1.12c0.15-0.33,0.27-0.67,0.39-1.01c0.11-0.36,0.22-0.73,0.33-1.09
			c0.11-0.37,0.17-0.77,0.26-1.14c-0.01,0.05-0.02,0.11-0.04,0.16c0.06-0.4,0.12-0.8,0.18-1.2c0.06-0.39,0.07-0.79,0.11-1.19
			c-0.01,0.07-0.01,0.14-0.02,0.2c0.01-0.39,0.02-0.78,0.03-1.17c0.01-0.31-0.01-0.62-0.03-0.93c-0.03-0.42-0.08-0.84-0.14-1.26
			c-0.11-0.6-0.27-1.19-0.43-1.78c-0.11-0.32-0.21-0.64-0.32-0.95c-0.11-0.34-0.27-0.67-0.4-1.01c-0.29-0.63-0.6-1.25-0.92-1.86
			c-0.31-0.59-0.67-1.16-1.02-1.73c-0.59-0.85-1.19-1.67-1.84-2.47c-0.64-0.72-1.3-1.42-1.99-2.09c-0.43-0.39-0.87-0.77-1.32-1.14
			c-0.43-0.36-0.9-0.68-1.36-1c-0.75-0.48-1.51-0.93-2.29-1.36c-1.34-0.68-2.71-1.29-4.12-1.81c-2.34-0.79-4.73-1.42-7.13-1.97
			c-0.47,0.2-1.02,0.17-1.48-0.09c-0.08-0.04-0.17-0.07-0.26-0.1c-0.48-0.15-0.95-0.3-1.44-0.42c-0.47-0.09-0.94-0.16-1.41-0.2
			c-1.03-0.08-2.06-0.07-3.09-0.05c-0.28,0.02-0.57,0.05-0.85,0.07c-0.32,0.02-0.64,0.03-0.95,0.08c-0.71,0.1-1.42,0.2-2.12,0.3
			c-0.57,0.11-1.14,0.21-1.71,0.32c-0.52,0.1-1.03,0.22-1.55,0.34c-0.51,0.12-1.02,0.23-1.52,0.37c-0.58,0.17-1.16,0.34-1.74,0.51
			c-0.75,0.27-1.49,0.55-2.24,0.82c-0.35,0.13-0.7,0.31-1.04,0.47c-0.34,0.15-0.68,0.3-1.02,0.46c-0.96,0.52-1.92,1.03-2.85,1.6
			c-1.14,0.72-2.22,1.51-3.26,2.37c-1.02,0.87-1.99,1.8-2.9,2.79c-0.97,1.08-1.87,2.21-2.71,3.4c-0.71,1.05-1.37,2.13-1.96,3.25
			c-0.49,0.96-0.92,1.94-1.3,2.95c-0.27,0.76-0.49,1.52-0.67,2.31c-0.16,0.79-0.28,1.58-0.35,2.38c-0.05,0.69-0.07,1.38-0.05,2.07
			c0.04,0.64,0.1,1.28,0.2,1.91c0.13,0.72,0.31,1.43,0.51,2.14c0.25,0.79,0.55,1.56,0.89,2.31c0.41,0.87,0.88,1.7,1.39,2.52
			c0.62,0.96,1.29,1.87,2.01,2.75c0.72,0.84,1.47,1.63,2.28,2.39c1.03,0.93,2.12,1.78,3.25,2.58c0.89,0.61,1.81,1.15,2.77,1.65
			c1.12,0.56,2.27,1.05,3.45,1.48c1.15,0.4,2.32,0.72,3.51,0.99c0.88,0.19,1.77,0.32,2.65,0.48c0.36,0.06,0.72,0.08,1.08,0.12
			c0.41,0.04,0.82,0.09,1.23,0.13C390.6,62.48,391.41,62.51,392.21,62.53z"/>
		<path class="st0" d="M390.38,35.04c-0.85-0.02-1.61-0.77-1.56-1.64c0.1-2,0.3-3.99,0.51-5.97c0.11-0.99,0.23-1.98,0.37-2.96
			c0.07-0.51,0.16-1.01,0.25-1.51c0.04-0.22,0.09-0.44,0.14-0.66c0.09-0.43,0.23-0.92,0.58-1.21c0.5-0.42,1.12-0.57,1.74-0.31
			c0.2,0.08,0.38,0.21,0.52,0.37c0.46,0.48,0.56,1.2,0.29,1.78c0,0.01-0.01,0.03-0.01,0.04c-0.27,1.32-0.45,2.66-0.61,3.99
			c-0.16,1.34-0.29,2.69-0.41,4.04c-0.07,0.83-0.13,1.65-0.17,2.48c-0.04,0.86-0.73,1.56-1.6,1.56
			C390.41,35.04,390.4,35.04,390.38,35.04z"/>
		<path class="st0" d="M400.43,32.33c-0.42-0.01-0.83-0.19-1.12-0.5c-0.3-0.32-0.43-0.71-0.44-1.14c-0.05-1.81-0.04-3.63-0.02-5.44
			c0.01-0.91,0.02-1.82,0.05-2.74c0.02-0.49,0.03-0.97,0.05-1.46c0.02-0.42,0.02-0.84,0.06-1.25c0.09-0.87,0.99-1.47,1.82-1.34
			c0.42,0.06,0.81,0.3,1.06,0.64c0.23,0.32,0.32,0.69,0.29,1.08c0-0.03,0.01-0.07,0.01-0.1c-0.06,0.86-0.07,1.73-0.1,2.6
			c-0.03,0.92-0.04,1.85-0.05,2.77c-0.02,1.77-0.03,3.54,0.02,5.31c0.02,0.86-0.78,1.56-1.6,1.56
			C400.45,32.33,400.44,32.33,400.43,32.33z"/>
		<path class="st0" d="M392.97,127.75c-3.48-0.15-6.97-0.34-10.43-0.7c-1.77-0.18-3.53-0.41-5.29-0.74
			c-0.77-0.15-1.56-0.31-2.29-0.6c-0.39-0.16-0.83-0.33-1.15-0.61c-0.37-0.32-0.67-0.66-0.88-1.12c-0.22-0.5-0.28-1.05-0.3-1.59
			c-0.02-0.46-0.03-0.91-0.01-1.37c0.07-1.61,0.21-3.22,0.32-4.84c0.11-1.69,0.22-3.39,0.33-5.08c0.22-3.35,0.49-6.7,0.74-10.04
			c0.26-3.43,0.51-6.86,0.75-10.29c0.25-3.5,0.5-7.01,0.8-10.51c0.31-3.67,0.65-7.34,0.98-11.01c0.13-1.41,0.26-2.82,0.39-4.24
			c0.06-0.68,0.13-1.35,0.19-2.03c0.03-0.35,0.06-0.7,0.1-1.05c0.03-0.29,0.04-0.6,0.15-0.87c0.3-0.73,1.16-1.13,1.92-0.92
			c0.79,0.23,1.25,1.01,1.13,1.8c0,0,0-0.01,0-0.01c-0.09,0.53-0.1,1.08-0.15,1.61c-0.07,0.7-0.13,1.4-0.2,2.11
			c-0.12,1.32-0.25,2.64-0.37,3.95c-0.26,2.82-0.51,5.64-0.76,8.46c-0.28,3.34-0.56,6.69-0.8,10.04c-0.25,3.62-0.51,7.23-0.78,10.85
			c-0.25,3.35-0.53,6.7-0.76,10.05c-0.24,3.35-0.44,6.71-0.67,10.07c-0.06,0.95-0.15,1.9-0.15,2.85c0.01,0.23,0.02,0.46,0.05,0.69
			c0.08,0.04,0.17,0.08,0.26,0.11c0.46,0.15,0.92,0.27,1.39,0.38c0.93,0.18,1.86,0.35,2.8,0.47c1.12,0.14,2.23,0.27,3.35,0.38
			c2.8,0.23,5.61,0.41,8.42,0.56c2.78,0.15,5.57,0.13,8.35,0.03c2.31-0.11,4.63-0.24,6.93-0.48c2.3-0.24,4.58-0.55,6.86-0.94
			c-0.03,0.01-0.07,0.01-0.1,0.02c1.06-0.18,2.14-0.33,3.17-0.62c0.04-0.01,0.08-0.03,0.12-0.04c0.03-0.02,0.06-0.03,0.09-0.05
			c0.02-0.02,0.04-0.04,0.05-0.05c0.01-0.01,0.02-0.03,0.03-0.04c0,0.01-0.01,0.01-0.01,0.02c0,0,0,0,0.01-0.01
			c0.03-0.05,0.06-0.1,0.09-0.15c0.06-0.14,0.12-0.28,0.18-0.42c0.07-0.24,0.14-0.47,0.19-0.71c0.13-0.64,0.2-1.28,0.27-1.94
			c0.09-1.56,0.14-3.13,0.12-4.7c-0.02-1.73-0.07-3.45-0.14-5.17c0,0.07,0.01,0.14,0.01,0.21c-0.3-6.87-0.73-13.74-1.57-20.56
			c-0.44-3.55-0.94-7.1-1.43-10.64c-0.47-3.38-0.89-6.77-1.27-10.17c-0.39-3.5-0.75-7.01-1.2-10.51c-0.11-0.87,0.57-1.67,1.42-1.76
			c0.88-0.09,1.65,0.56,1.76,1.42c0.41,3.18,0.74,6.37,1.09,9.56c0.37,3.4,0.78,6.79,1.25,10.18c0.47,3.4,0.97,6.79,1.39,10.2
			c0.43,3.45,0.79,6.9,1.06,10.36c0.27,3.51,0.48,7.03,0.64,10.55c0.15,3.49,0.32,7.01,0.11,10.51c-0.07,1.1-0.16,2.21-0.42,3.29
			c-0.22,0.93-0.54,1.84-1.17,2.58c-0.25,0.29-0.56,0.57-0.9,0.74c-0.37,0.19-0.74,0.32-1.13,0.44c-0.34,0.1-0.7,0.16-1.05,0.23
			c-0.41,0.08-0.82,0.15-1.22,0.23c-0.78,0.14-1.56,0.27-2.34,0.39c-3.34,0.52-6.69,0.88-10.06,1.08c-2.27,0.14-4.55,0.22-6.82,0.22
			C395.28,127.82,394.12,127.8,392.97,127.75z"/>
		<path class="st0" d="M375.05,166.72c-0.74-0.29-1.38-0.8-1.92-1.38c-0.64-0.68-1.12-1.55-1.38-2.45
			c-0.51-1.79-0.23-3.91,1.25-5.17c0.88-0.75,2.08-0.84,3.19-0.85c0.68-0.01,1.36,0.13,2.02,0.27c0.66,0.14,1.32,0.32,1.96,0.56
			c1.14,0.42,2.18,1.05,3.31,1.49c0.01,0,0.02,0.01,0.03,0.01c0.05-0.29,0.08-0.58,0.11-0.87c0.26-3.21,0.49-6.41,0.74-9.62
			c0.27-3.44,0.57-6.88,0.9-10.32c0.36-3.75,0.69-7.51,1.14-11.25c0.1-0.87,0.98-1.47,1.82-1.34c0.88,0.13,1.44,0.96,1.34,1.82
			c-0.33,2.77-0.58,5.55-0.85,8.33c-0.27,2.83-0.54,5.66-0.79,8.5c0-0.02,0-0.05,0.01-0.07c0,0.04-0.01,0.08-0.01,0.12
			c0,0.03-0.01,0.06-0.01,0.09c0-0.02,0-0.04,0.01-0.07c-0.28,3.33-0.53,6.66-0.78,9.99c-0.06,0.8-0.12,1.6-0.18,2.39
			c-0.07,0.84-0.11,1.69-0.22,2.53c-0.04,0.32-0.1,0.64-0.21,0.95c-0.16,0.44-0.39,0.82-0.67,1.19c-0.13,0.17-0.27,0.31-0.43,0.44
			c0.02,0.31-0.05,0.64-0.22,0.92c-0.65,1.07-1.47,2.01-2.5,2.73c-1.34,0.95-2.94,1.39-4.56,1.49c-0.17,0.01-0.35,0.02-0.52,0.02
			C376.72,167.18,375.88,167.04,375.05,166.72z M377.81,163.98c0.31-0.02,0.61-0.05,0.92-0.09c0.28-0.05,0.55-0.12,0.82-0.19
			c0.18-0.06,0.35-0.13,0.52-0.2c0.19-0.1,0.38-0.2,0.57-0.31c0.19-0.13,0.38-0.26,0.56-0.41c0.16-0.14,0.32-0.29,0.46-0.45
			c0.09-0.1,0.17-0.2,0.26-0.31c-0.26-0.11-0.52-0.23-0.77-0.35c-0.75-0.35-1.48-0.73-2.26-1.03c-0.43-0.13-0.86-0.25-1.3-0.36
			c-0.34-0.07-0.68-0.14-1.03-0.18c-0.22-0.01-0.43-0.02-0.65-0.02c-0.21,0.01-0.41,0.03-0.61,0.05c-0.09,0.02-0.17,0.03-0.26,0.05
			c-0.01,0.01-0.01,0.01-0.02,0.02c-0.02,0.03-0.05,0.06-0.07,0.09c-0.03,0.05-0.06,0.1-0.09,0.15c-0.02,0.04-0.04,0.08-0.05,0.12
			c-0.02,0.06-0.04,0.13-0.06,0.19c-0.01,0.08-0.03,0.16-0.04,0.24c-0.01,0.1-0.01,0.19-0.01,0.29c0.01,0.16,0.03,0.31,0.05,0.47
			c0.02,0.09,0.04,0.18,0.07,0.27c0.03,0.1,0.07,0.2,0.11,0.3c0.07,0.14,0.13,0.27,0.21,0.4c0.08,0.12,0.16,0.23,0.25,0.35
			c0.09,0.1,0.18,0.2,0.27,0.29c0.09,0.08,0.18,0.15,0.28,0.22c0.05,0.03,0.11,0.07,0.16,0.1c0.1,0.05,0.2,0.09,0.3,0.13
			c0.11,0.03,0.22,0.06,0.33,0.09c0.13,0.02,0.25,0.04,0.38,0.06C377.35,163.98,377.57,163.98,377.81,163.98z"/>
		<path class="st0" d="M412.06,165.49c-0.86-0.19-1.67-0.46-2.45-0.87c-1.46-0.76-2.6-2-3.4-3.43c-0.19-0.34-0.23-0.72-0.15-1.08
			c-0.34-0.36-0.53-0.84-0.6-1.32c-0.13-0.92-0.12-1.86-0.15-2.79c-0.03-0.79-0.05-1.58-0.07-2.37c-0.1-3.41-0.17-6.83-0.24-10.24
			c-0.07-3.85-0.14-7.7-0.28-11.55c-0.05-1.13-0.14-2.27-0.16-3.4c-0.01-0.87,0.79-1.58,1.64-1.56c0.9,0.02,1.55,0.77,1.56,1.64
			c0,0.01,0,0.03,0,0.04c0.08,1.62,0.17,3.25,0.22,4.87c0.06,1.84,0.1,3.69,0.14,5.53c0.07,3.34,0.12,6.68,0.2,10.02
			c0.06,2.73,0.13,5.45,0.23,8.18c0.46-0.25,0.92-0.51,1.39-0.74c0.71-0.34,1.43-0.61,2.2-0.78c0.91-0.2,1.87-0.2,2.79-0.08
			c0.26,0.03,0.52,0.07,0.78,0.1c0.48,0.06,0.93,0.2,1.38,0.36c0.88,0.32,1.68,0.9,2.32,1.57c0.52,0.54,0.94,1.24,1.12,1.97
			c0.19,0.78,0.17,1.54-0.05,2.31c-0.43,1.5-1.76,2.74-3.18,3.32c-0.49,0.2-1.01,0.36-1.53,0.43c-0.47,0.07-0.93,0.1-1.41,0.11
			c-0.08,0-0.16,0-0.24,0C413.45,165.72,412.74,165.63,412.06,165.49z M414.69,162.51c0.22-0.02,0.43-0.04,0.64-0.07
			c0.18-0.04,0.35-0.09,0.53-0.14c0.09-0.03,0.17-0.06,0.26-0.1c0.1-0.05,0.21-0.1,0.31-0.16c0.13-0.09,0.27-0.19,0.39-0.29
			c0.09-0.08,0.17-0.16,0.25-0.24c0.06-0.08,0.12-0.15,0.18-0.23c0.03-0.05,0.06-0.1,0.09-0.15c0.02-0.04,0.04-0.09,0.06-0.13
			c0.02-0.07,0.04-0.15,0.06-0.22c0-0.03,0.01-0.06,0.01-0.09c0-0.04,0-0.07,0-0.11c0-0.04-0.01-0.08-0.01-0.12
			c-0.01-0.05-0.02-0.1-0.03-0.15c-0.01-0.03-0.02-0.06-0.03-0.09c-0.04-0.08-0.08-0.15-0.12-0.23c-0.03-0.04-0.06-0.09-0.09-0.13
			c-0.08-0.09-0.17-0.18-0.26-0.27c-0.1-0.09-0.21-0.17-0.31-0.25c-0.13-0.08-0.26-0.16-0.39-0.23c-0.15-0.07-0.31-0.14-0.46-0.2
			c-0.06-0.02-0.11-0.03-0.17-0.05c-0.44-0.08-0.89-0.14-1.33-0.18c-0.25-0.01-0.5-0.02-0.75-0.01c-0.18,0.01-0.36,0.03-0.54,0.05
			c-0.21,0.04-0.41,0.09-0.62,0.14c-0.28,0.1-0.56,0.2-0.83,0.32c-0.7,0.35-1.39,0.73-2.08,1.1c0.07,0.1,0.14,0.19,0.21,0.28
			c0.18,0.21,0.38,0.41,0.58,0.61c0.11,0.09,0.22,0.18,0.33,0.27c0.23,0.15,0.47,0.29,0.72,0.42c0.19,0.08,0.38,0.16,0.57,0.24
			c0.22,0.07,0.43,0.14,0.65,0.19c0.42,0.08,0.83,0.15,1.26,0.19C414.07,162.51,414.37,162.52,414.69,162.51z"/>
		<path class="st0" d="M391.77,56.72c-0.86-0.17-1.68-0.71-2.25-1.35c-0.72-0.82-1.18-1.79-1.5-2.82c-0.45-1.46-0.48-3.04-0.34-4.54
			c0.15-1.52,0.59-3.05,1.21-4.44c0.62-1.37,1.47-2.67,2.61-3.66c1.02-0.89,2.36-1.64,3.73-1.7c0.18-0.01,0.36,0.02,0.52,0.07
			c0.41-0.24,0.91-0.31,1.37-0.12c0.75,0.3,1.47,0.72,2.04,1.3c0.62,0.63,1.07,1.37,1.46,2.16c0.38,0.76,0.65,1.57,0.86,2.4
			c0.37,1.42,0.27,2.98-0.15,4.38c-0.26,0.86-0.52,1.72-0.9,2.53c-0.28,0.58-0.55,1.15-0.9,1.7c-0.63,0.98-1.4,1.81-2.33,2.51
			c-0.77,0.58-1.65,1.08-2.56,1.39c-0.44,0.15-0.89,0.25-1.35,0.3c-0.15,0.02-0.29,0.02-0.44,0.02
			C392.5,56.83,392.14,56.79,391.77,56.72z M392.96,53.63c0.09-0.01,0.17-0.02,0.26-0.04c0.15-0.04,0.3-0.08,0.44-0.13
			c0.22-0.09,0.43-0.18,0.65-0.29c0.27-0.15,0.53-0.31,0.79-0.48c0.28-0.2,0.54-0.41,0.8-0.64c0.16-0.16,0.31-0.32,0.46-0.49
			c0.19-0.24,0.37-0.49,0.54-0.75c0.25-0.43,0.47-0.86,0.68-1.31c0.18-0.46,0.36-0.92,0.52-1.39c0.15-0.52,0.28-1.03,0.38-1.56
			c0.02-0.14,0.04-0.29,0.05-0.43c0-0.22,0-0.44-0.01-0.66c-0.03-0.21-0.06-0.42-0.1-0.63c-0.08-0.3-0.16-0.59-0.26-0.89
			c-0.17-0.43-0.34-0.84-0.54-1.25c-0.11-0.19-0.22-0.38-0.34-0.56c-0.09-0.12-0.18-0.23-0.27-0.34c-0.08-0.08-0.16-0.15-0.24-0.23
			c-0.08-0.06-0.16-0.12-0.24-0.17c-0.12-0.07-0.24-0.13-0.36-0.19c-0.02-0.01-0.04-0.02-0.07-0.03c-0.22,0.13-0.47,0.21-0.74,0.22
			c-0.05,0.01-0.09,0.01-0.14,0.02c-0.06,0.01-0.11,0.03-0.16,0.05c-0.19,0.08-0.38,0.16-0.57,0.25c-0.16,0.09-0.31,0.18-0.46,0.28
			c-0.15,0.11-0.3,0.23-0.44,0.35c-0.22,0.22-0.43,0.44-0.63,0.68c-0.2,0.26-0.4,0.53-0.58,0.81c-0.2,0.35-0.39,0.7-0.56,1.06
			c-0.19,0.46-0.37,0.92-0.52,1.39c-0.14,0.49-0.25,0.99-0.34,1.49c-0.06,0.42-0.1,0.84-0.13,1.26c-0.01,0.41,0,0.83,0.03,1.24
			c0.04,0.32,0.09,0.64,0.15,0.95c0.06,0.26,0.14,0.52,0.22,0.77c0.08,0.2,0.16,0.39,0.25,0.58c0.08,0.15,0.17,0.29,0.27,0.44
			c0.05,0.06,0.1,0.13,0.15,0.19c0.05,0.05,0.1,0.09,0.15,0.14c0.06,0.04,0.11,0.08,0.17,0.12c0.03,0.02,0.07,0.04,0.1,0.06
			c0.04,0.02,0.09,0.03,0.13,0.05c0.04,0.01,0.09,0.02,0.13,0.03c0.06,0.01,0.12,0.01,0.18,0.02
			C392.82,53.64,392.89,53.64,392.96,53.63z"/>
		<path class="st0" d="M417.7,55.37c-0.88-0.09-1.49-0.89-1.42-1.76c0.01-0.16,0.03-0.33,0.04-0.49c0-0.18,0-0.36-0.01-0.54
			c-0.03-0.32-0.08-0.63-0.14-0.94c-0.14-0.61-0.33-1.2-0.52-1.8c-0.32-0.85-0.67-1.67-1.06-2.48c-0.27-0.5-0.55-0.98-0.87-1.45
			c-0.5-0.72-0.17-1.77,0.54-2.2c0.36-0.22,0.79-0.29,1.2-0.19c0.43,0.1,0.75,0.37,1,0.73c0.41,0.6,0.77,1.23,1.09,1.89
			c0.28,0.57,0.57,1.16,0.79,1.76c0.27,0.74,0.54,1.48,0.75,2.24c0.24,0.86,0.39,1.74,0.43,2.63c0.02,0.39-0.03,0.79-0.06,1.17
			c-0.07,0.82-0.81,1.43-1.6,1.43C417.8,55.38,417.75,55.37,417.7,55.37z"/>
		<path class="st0" d="M417.77,52.89c-0.81-0.3-1.25-1.25-0.93-2.06c0.13-0.33,0.25-0.66,0.36-1c0.24-0.81,0.42-1.62,0.59-2.44
			c0.11-0.68,0.21-1.35,0.25-2.04c0.01-0.39,0-0.77-0.02-1.15c-0.04-0.34-0.09-0.68-0.16-1.02c-0.06-0.24-0.13-0.49-0.21-0.73
			c-0.05-0.14-0.1-0.28-0.16-0.42c-0.43-0.73-0.15-1.72,0.57-2.15c0.76-0.46,1.73-0.2,2.2,0.54c0.18,0.28,0.28,0.6,0.39,0.91
			c0.3,0.8,0.46,1.64,0.54,2.49c0.13,1.35-0.03,2.67-0.23,3.99c-0.22,1.41-0.6,2.82-1.12,4.14c-0.25,0.63-0.86,1.03-1.51,1.03
			C418.14,52.99,417.95,52.96,417.77,52.89z"/>
		<path class="st0" d="M417.13,54.51c-0.63-0.6-0.67-1.63-0.07-2.26c0.44-0.46,0.85-0.95,1.26-1.44c1.38-1.69,2.78-3.41,3.94-5.26
			c0.34-0.57,0.65-1.15,0.93-1.75c0.16-0.37,0.3-0.75,0.43-1.13c0.11-0.38,0.2-0.76,0.28-1.15c0.05-0.34,0.09-0.68,0.12-1.02
			c0.07-0.87,0.9-1.51,1.76-1.42c0.88,0.09,1.5,0.89,1.43,1.76c-0.05,0.54-0.12,1.08-0.22,1.62c-0.24,1.3-0.77,2.53-1.37,3.69
			c-0.66,1.28-1.52,2.46-2.38,3.61c-0.59,0.79-1.21,1.56-1.83,2.33c-0.64,0.8-1.3,1.6-2.01,2.35c-0.31,0.33-0.74,0.5-1.17,0.5
			C417.83,54.94,417.44,54.8,417.13,54.51z"/>
		<path class="st0" d="M424.27,89.18c-0.79-0.56-1.4-1.35-1.94-2.14c-0.5-0.73-0.91-1.51-1.29-2.3c-0.42-0.87-0.82-1.74-1.21-2.61
			c-1.41-3.17-2.61-6.45-3.57-9.79c-0.48-1.68-0.94-3.36-1.3-5.07c-0.39-1.82-0.75-3.64-1.1-5.47c-0.08-0.42-0.16-0.84-0.24-1.27
			c-0.1-0.55-0.21-1.09-0.1-1.65c0.16-0.86,1.1-1.38,1.93-1.19c0.78,0.19,1.25,0.89,1.22,1.65c0.09,0.61,0.21,1.21,0.33,1.82
			c0.12,0.65,0.25,1.3,0.37,1.96c0.24,1.25,0.51,2.5,0.77,3.75c0.2,0.8,0.39,1.61,0.59,2.41c0.15,0.62,0.34,1.24,0.52,1.86
			c0.18,0.63,0.35,1.27,0.56,1.89c0.27,0.82,0.55,1.63,0.82,2.45c1.03,2.81,2.18,5.58,3.49,8.27c0.32,0.6,0.66,1.19,1.04,1.76
			c0.17,0.23,0.34,0.45,0.53,0.66c0.12,0.12,0.24,0.24,0.36,0.35c0.1,0.08,0.21,0.16,0.32,0.23c-0.06-0.04-0.12-0.07-0.18-0.11
			c0.13,0.08,0.26,0.16,0.4,0.23c0.07,0.03,0.15,0.06,0.22,0.08c0.08,0.02,0.15,0.04,0.23,0.06c-0.04-0.01-0.08-0.01-0.11-0.02
			c-0.02,0-0.03-0.01-0.05-0.01c0.02,0,0.03,0.01,0.04,0.01c-0.03,0-0.06-0.01-0.09-0.01c0.03,0.01,0.07,0.01,0.1,0.02
			c0.01,0,0.03,0.01,0.04,0.01c-0.01,0-0.02-0.01-0.04-0.01c0.09,0.01,0.18,0.03,0.26,0.03c0.12,0,0.23,0,0.35-0.01
			c-0.02,0-0.04,0.01-0.06,0.01c0.02,0,0.05-0.01,0.07-0.02c0.03,0,0.06-0.01,0.08-0.01c-0.02,0-0.05,0-0.07,0.01
			c0.03-0.01,0.07-0.02,0.1-0.02c-0.04,0.01-0.07,0.02-0.11,0.02c-0.04,0-0.08,0.01-0.13,0.01c0.08-0.01,0.16-0.02,0.24-0.04
			c0.08-0.02,0.15-0.04,0.22-0.07c0.09-0.03,0.18-0.07,0.27-0.11c0.15-0.09,0.3-0.17,0.44-0.27c0.08-0.06,0.16-0.13,0.24-0.2
			c0.15-0.15,0.3-0.31,0.44-0.47c0.12-0.17,0.24-0.33,0.35-0.51c0.19-0.32,0.36-0.65,0.52-0.99c0.2-0.47,0.38-0.95,0.53-1.44
			c0.15-0.53,0.27-1.07,0.37-1.61c0.11-0.71,0.19-1.42,0.23-2.14c0.02-0.7,0-1.39-0.05-2.09c-0.09-0.92-0.26-1.83-0.42-2.74
			c-0.11-0.49-0.23-0.98-0.34-1.47c-0.12-0.51-0.27-1.01-0.41-1.51c-0.25-0.91-0.56-1.8-0.87-2.7c-0.7-1.81-1.45-3.59-2.24-5.35
			c-0.82-1.85-1.68-3.68-2.6-5.48c-0.82-1.54-1.68-3.08-2.68-4.52c-0.2-0.28-0.41-0.55-0.63-0.82c-0.56-0.67-0.43-1.71,0.24-2.25
			c0.69-0.56,1.69-0.43,2.25,0.24c0.99,1.18,1.78,2.53,2.55,3.85c0.88,1.5,1.65,3.07,2.4,4.64c0.73,1.52,1.4,3.07,2.08,4.62
			c0.71,1.6,1.37,3.22,1.94,4.88c0.57,1.66,1,3.36,1.4,5.07c0.28,1.19,0.44,2.42,0.54,3.64c0.2,2.37-0.12,4.78-0.82,7.04
			c-0.31,1.02-0.77,2.01-1.34,2.91c-0.61,0.96-1.39,1.76-2.36,2.35c-0.82,0.5-1.78,0.74-2.74,0.74c-0.01,0-0.02,0-0.02,0
			C426.12,90.21,425.12,89.78,424.27,89.18z"/>
		<path class="st0" d="M369.45,55.7c-0.64-0.45-0.9-1.26-1.09-1.98c-0.31-1.15-0.37-2.37-0.39-3.56c-0.03-2.38,0.32-4.78,1.19-6.99
			c0.52-1.31,1.25-2.54,2-3.72c0.48-0.75,1.05-1.45,1.69-2.07c0.31-0.3,0.69-0.49,1.13-0.5c0.42-0.01,0.83,0.15,1.13,0.43
			c0.61,0.58,0.7,1.66,0.07,2.26c-0.24,0.23-0.46,0.47-0.67,0.72c-0.37,0.48-0.71,0.98-1.04,1.5c-0.39,0.67-0.78,1.35-1.11,2.05
			c-0.2,0.46-0.38,0.93-0.53,1.4c-0.18,0.62-0.32,1.24-0.44,1.88c-0.1,0.65-0.16,1.29-0.2,1.94c-0.03,0.8-0.02,1.6,0.04,2.4
			c0.04,0.4,0.1,0.8,0.17,1.2c0.05,0.23,0.11,0.45,0.19,0.68c0,0,0,0.01,0.01,0.01c0.47,0.54,0.52,1.37,0.09,1.98
			c-0.31,0.43-0.81,0.66-1.31,0.66C370.05,55.99,369.73,55.89,369.45,55.7z"/>
		<path class="st0" d="M371.45,53.92c-0.84-0.2-1.4-1.08-1.19-1.93c0.54-2.16,1.58-4.15,2.69-6.07c0.56-0.96,1.15-1.9,1.78-2.82
			c0.31-0.45,0.62-0.89,0.94-1.33c0.52-0.7,1.02-1.39,1.68-1.97c0.65-0.58,1.72-0.42,2.25,0.24c0.27,0.33,0.39,0.75,0.35,1.17
			c-0.05,0.43-0.26,0.79-0.58,1.07c-0.16,0.16-0.31,0.33-0.46,0.5c-1.04,1.3-1.95,2.71-2.83,4.12c-0.67,1.15-1.31,2.3-1.88,3.5
			c-0.25,0.6-0.48,1.19-0.68,1.81c-0.05,0.17-0.09,0.34-0.14,0.52c-0.18,0.73-0.84,1.23-1.56,1.23
			C371.69,53.97,371.57,53.95,371.45,53.92z"/>
		<path class="st0" d="M371.09,57.59c-0.62-0.58-0.69-1.64-0.07-2.26c0.7-0.7,1.48-1.31,2.24-1.95c0.74-0.63,1.48-1.25,2.22-1.88
			c0.69-0.58,1.38-1.16,2.07-1.74c0.36-0.3,0.73-0.6,1.11-0.88c0.36-0.27,0.73-0.58,1.14-0.76c0.8-0.35,1.76,0.03,2.11,0.83
			c0.33,0.76,0.01,1.65-0.7,2.04c-0.09,0.05-0.17,0.11-0.26,0.17c-1.31,0.99-2.55,2.07-3.81,3.13c-1.23,1.04-2.46,2.06-3.67,3.12
			c-0.04,0.04-0.08,0.08-0.12,0.12c-0.32,0.33-0.76,0.5-1.19,0.5C371.78,58.01,371.4,57.87,371.09,57.59z"/>
		<path class="st0" d="M373.53,59.01c-0.35-0.25-0.59-0.64-0.65-1.06c-0.13-0.83,0.47-1.73,1.34-1.83c1.56-0.17,3.12-0.36,4.67-0.58
			c0.88-0.12,1.75-0.26,2.62-0.41c0.71-0.12,1.42-0.26,2.14-0.3c0.87-0.05,1.62,0.71,1.64,1.56c0.02,0.89-0.69,1.58-1.55,1.64
			c-0.67,0.08-1.34,0.2-2.01,0.31c-0.82,0.14-1.64,0.26-2.46,0.38c-1.51,0.22-3.03,0.41-4.55,0.57c-0.08,0.01-0.15,0.01-0.22,0.01
			C374.14,59.31,373.82,59.22,373.53,59.01z"/>
		<path class="st0" d="M360.13,87.45c-0.48-0.12-0.92-0.28-1.35-0.54c-0.47-0.28-0.85-0.66-1.18-1.09
			c-1.28-1.72-1.03-4.04-0.63-6.01c0.19-0.93,0.45-1.86,0.74-2.76c0.14-0.45,0.28-0.89,0.42-1.34c0.15-0.48,0.35-0.95,0.53-1.42
			c0.62-1.68,1.41-3.29,2.18-4.91c0.77-1.61,1.64-3.17,2.52-4.72c0.42-0.74,0.88-1.46,1.34-2.17c0.52-0.8,1.03-1.61,1.57-2.4
			c0.89-1.31,1.76-2.61,2.84-3.78c0.69-0.75,1.56-1.54,2.6-1.69c0.44-0.06,0.92,0.06,1.29,0.32c0.28,0.2,0.45,0.47,0.61,0.77
			c0.4,0.78-0.07,1.78-0.83,2.11c-0.24,0.1-0.49,0.15-0.75,0.13c-0.09,0.08-0.18,0.15-0.27,0.23c-0.3,0.29-0.58,0.6-0.85,0.92
			c-1.34,1.67-2.47,3.51-3.63,5.3c0.01-0.01,0.01-0.02,0.02-0.03c-0.36,0.58-0.74,1.15-1.07,1.74c-0.42,0.75-0.87,1.48-1.26,2.25
			c-0.42,0.83-0.84,1.66-1.27,2.48c-0.35,0.69-0.67,1.4-1,2.1c-0.38,0.87-0.76,1.74-1.09,2.63c-0.17,0.47-0.37,0.94-0.52,1.41
			c-0.16,0.51-0.32,1.01-0.48,1.52c-0.23,0.85-0.45,1.69-0.61,2.55c-0.06,0.4-0.11,0.79-0.14,1.2c0,0.24,0,0.47,0.01,0.71
			c0.01,0.12,0.03,0.25,0.06,0.37c0.02,0.09,0.05,0.18,0.08,0.27c0.03,0.07,0.06,0.14,0.09,0.21c0.03,0.06,0.07,0.11,0.1,0.17
			c0.02,0.03,0.04,0.05,0.07,0.08c0.03,0.03,0.06,0.05,0.09,0.08c0.04,0.03,0.07,0.06,0.11,0.08c0.03,0.02,0.06,0.03,0.09,0.05
			c0.05,0.02,0.09,0.03,0.14,0.05c0.05,0.01,0.1,0.02,0.15,0.04c0.05,0.01,0.1,0.01,0.16,0.02c0.1,0,0.19,0,0.29-0.01
			c0.11-0.01,0.21-0.03,0.32-0.05c0.22-0.05,0.43-0.12,0.65-0.19c0.27-0.11,0.54-0.22,0.8-0.35c0.41-0.22,0.79-0.46,1.17-0.72
			c0.44-0.33,0.86-0.67,1.27-1.04c0.52-0.49,1-1.01,1.46-1.55c0.51-0.63,0.99-1.28,1.42-1.97c0.27-0.42,0.53-0.84,0.8-1.26
			c1.17-2.01,2.32-4.02,3.37-6.1c1.02-2.03,1.96-4.1,2.9-6.17c-0.01,0.01-0.01,0.03-0.02,0.04c0.02-0.04,0.04-0.08,0.06-0.13
			c0.01-0.02,0.02-0.04,0.03-0.06c0,0.01-0.01,0.02-0.01,0.02c0.06-0.14,0.13-0.29,0.19-0.43c0.26-0.59,0.52-1.17,0.78-1.76
			c0.18-0.4,0.45-0.72,0.86-0.9c0.38-0.17,0.82-0.18,1.21-0.03c0.78,0.3,1.28,1.27,0.93,2.06c-0.29,0.66-0.58,1.32-0.88,1.98
			c0-0.01,0.01-0.01,0.01-0.02c-1.4,3.1-2.79,6.22-4.44,9.2c-0.85,1.53-1.69,3.07-2.63,4.55c-0.24,0.38-0.48,0.76-0.73,1.15
			c-0.63,0.99-1.4,1.92-2.19,2.79c-1.54,1.68-3.45,3.1-5.62,3.83c-0.58,0.19-1.24,0.32-1.88,0.32
			C360.76,87.56,360.44,87.53,360.13,87.45z"/>
	</g>
	<g>
		<path class="st0" d="M221.11,65.7c-0.46-0.02-0.92-0.03-1.38-0.05c-0.43-0.02-0.86-0.09-1.29-0.14c-0.45-0.05-0.91-0.1-1.36-0.15
			c-0.42-0.04-0.84-0.15-1.25-0.22c-0.41-0.07-0.83-0.15-1.24-0.22c-1.21-0.21-2.41-0.56-3.58-0.94c-2.2-0.71-4.33-1.68-6.32-2.87
			c-0.99-0.59-1.94-1.28-2.86-1.98c-0.98-0.74-1.9-1.56-2.78-2.41c-1.75-1.68-3.23-3.63-4.49-5.7c-1.26-2.05-2.17-4.29-2.71-6.63
			c-0.53-2.29-0.55-4.66-0.24-6.98c0.31-2.35,1.09-4.61,2.1-6.74c2.04-4.28,5.07-8.11,8.68-11.18c1.49-1.26,3.1-2.43,4.82-3.36
			c0.8-0.44,1.59-0.9,2.42-1.28c0.82-0.37,1.62-0.76,2.46-1.06c0.53-0.19,1.06-0.39,1.58-0.58c0.33-0.12,0.68-0.21,1.02-0.31
			c0.52-0.15,1.03-0.3,1.55-0.45c0.36-0.1,0.72-0.17,1.09-0.26c0.43-0.1,0.86-0.2,1.29-0.3c0.48-0.11,0.96-0.18,1.44-0.27
			c0.93-0.17,1.86-0.3,2.79-0.43c0.31-0.04,0.61-0.08,0.92-0.1c0.53-0.04,1.06-0.11,1.59-0.12c0.45-0.01,0.9-0.01,1.35-0.02
			c0.43-0.01,0.86,0.02,1.29,0.04c0.74,0.03,1.48,0.1,2.21,0.23c0.47,0.08,0.92,0.2,1.38,0.34c0.18-0.04,0.37-0.04,0.56,0
			c3.28,0.71,6.56,1.49,9.71,2.65c1.56,0.58,3.06,1.29,4.52,2.09c0.74,0.41,1.47,0.84,2.16,1.32c0.74,0.52,1.45,1.06,2.14,1.64
			c1.38,1.15,2.58,2.51,3.71,3.9c1.02,1.27,1.92,2.67,2.67,4.11c0.42,0.81,0.82,1.63,1.16,2.48c0.34,0.86,0.62,1.73,0.86,2.62
			c0.22,0.82,0.36,1.65,0.44,2.49c0.05,0.54,0.05,1.08,0.07,1.61c0.02,0.45-0.01,0.92-0.05,1.38c-0.04,0.4-0.05,0.81-0.11,1.21
			c-0.07,0.46-0.12,0.92-0.22,1.37c-0.09,0.4-0.15,0.81-0.27,1.2c-0.14,0.44-0.25,0.9-0.42,1.33c-0.15,0.39-0.28,0.79-0.45,1.16
			c-0.2,0.44-0.39,0.89-0.62,1.32c-0.21,0.4-0.42,0.8-0.62,1.2c-0.42,0.8-0.92,1.55-1.41,2.3c-0.44,0.68-0.93,1.34-1.46,1.95
			c-0.3,0.35-0.59,0.72-0.91,1.05c-0.36,0.37-0.72,0.75-1.08,1.12c-0.54,0.56-1.13,1.09-1.71,1.6c-0.74,0.65-1.49,1.28-2.25,1.9
			c-0.64,0.52-1.32,1-1.99,1.49c-0.32,0.23-0.66,0.43-0.99,0.64c-0.34,0.22-0.67,0.45-1.02,0.65c-0.78,0.46-1.56,0.92-2.37,1.33
			c-0.44,0.23-0.88,0.45-1.33,0.68c-0.4,0.2-0.82,0.37-1.23,0.55c-0.39,0.17-0.78,0.35-1.17,0.52c-0.41,0.18-0.85,0.32-1.27,0.48
			c-0.38,0.14-0.75,0.29-1.13,0.43c-0.44,0.17-0.9,0.28-1.35,0.42c-0.4,0.13-0.8,0.25-1.19,0.38c-0.44,0.14-0.9,0.24-1.35,0.35
			c-0.47,0.12-0.94,0.24-1.41,0.35c-0.37,0.09-0.75,0.14-1.12,0.21c-0.5,0.09-1,0.18-1.5,0.28c-0.39,0.07-0.8,0.1-1.19,0.14
			c-0.5,0.06-1.01,0.11-1.51,0.16c-0.39,0.04-0.79,0.03-1.18,0.04c-0.49,0.02-0.99,0.03-1.48,0.05c-0.05,0-0.1,0-0.16,0
			C221.76,65.74,221.43,65.71,221.11,65.7z M222.27,62.53c0.41,0.01,0.82-0.03,1.23-0.04c0.35-0.01,0.7-0.02,1.05-0.04
			c0.82-0.09,1.63-0.18,2.45-0.26c0.81-0.15,1.63-0.3,2.45-0.45c0.44-0.08,0.87-0.22,1.31-0.33c0.43-0.11,0.86-0.22,1.29-0.32
			c0.62-0.2,1.25-0.39,1.87-0.59c0.5-0.16,0.98-0.34,1.47-0.53c0.53-0.2,1.07-0.39,1.59-0.62c0.62-0.28,1.24-0.55,1.85-0.83
			c0.65-0.33,1.3-0.66,1.95-0.99c0.27-0.14,0.53-0.31,0.79-0.46c0.33-0.19,0.66-0.38,1-0.58c0.77-0.5,1.54-1,2.28-1.54
			c0.38-0.28,0.76-0.54,1.12-0.84c0.42-0.34,0.83-0.68,1.25-1.01c0.6-0.53,1.2-1.05,1.78-1.6c0.62-0.59,1.22-1.2,1.81-1.82
			c0.31-0.37,0.63-0.73,0.94-1.1c0.15-0.18,0.28-0.38,0.42-0.56c0.15-0.2,0.3-0.4,0.45-0.61c0.36-0.55,0.72-1.1,1.05-1.67
			c0.34-0.59,0.66-1.19,0.98-1.8c0.17-0.37,0.34-0.75,0.51-1.12c0.15-0.33,0.27-0.67,0.39-1.01c0.11-0.36,0.22-0.73,0.33-1.09
			c0.11-0.37,0.17-0.77,0.26-1.14c-0.01,0.05-0.02,0.11-0.04,0.16c0.06-0.4,0.12-0.8,0.18-1.2c0.06-0.39,0.07-0.79,0.11-1.19
			c-0.01,0.07-0.01,0.14-0.02,0.2c0.01-0.39,0.02-0.78,0.03-1.17c0.01-0.31-0.01-0.62-0.03-0.93c-0.03-0.42-0.08-0.84-0.14-1.26
			c-0.11-0.6-0.27-1.19-0.43-1.78c-0.11-0.32-0.21-0.64-0.32-0.95c-0.11-0.34-0.27-0.67-0.4-1.01c-0.29-0.63-0.6-1.25-0.92-1.86
			c-0.31-0.59-0.67-1.16-1.02-1.73c-0.59-0.85-1.19-1.67-1.84-2.47c-0.64-0.72-1.3-1.42-1.99-2.09c-0.43-0.39-0.87-0.77-1.32-1.14
			c-0.43-0.36-0.9-0.68-1.36-1c-0.75-0.48-1.51-0.93-2.29-1.36c-1.34-0.68-2.71-1.29-4.12-1.81c-2.34-0.79-4.73-1.42-7.13-1.97
			c-0.47,0.2-1.02,0.17-1.48-0.09c-0.09-0.04-0.17-0.07-0.26-0.1c-0.48-0.15-0.95-0.3-1.44-0.42c-0.47-0.09-0.94-0.16-1.41-0.2
			c-1.03-0.08-2.06-0.07-3.09-0.05c-0.28,0.02-0.57,0.05-0.85,0.07c-0.32,0.02-0.64,0.03-0.95,0.08c-0.71,0.1-1.42,0.2-2.12,0.3
			c-0.57,0.11-1.14,0.21-1.71,0.32c-0.52,0.1-1.03,0.22-1.55,0.34c-0.51,0.12-1.02,0.23-1.52,0.37c-0.58,0.17-1.16,0.34-1.74,0.51
			c-0.75,0.27-1.49,0.55-2.24,0.82c-0.35,0.13-0.7,0.31-1.04,0.47c-0.34,0.15-0.68,0.3-1.02,0.46c-0.96,0.52-1.92,1.03-2.85,1.6
			c-1.14,0.72-2.22,1.51-3.26,2.37c-1.02,0.87-1.99,1.8-2.9,2.79c-0.97,1.08-1.87,2.21-2.71,3.4c-0.71,1.05-1.37,2.13-1.96,3.25
			c-0.49,0.96-0.92,1.94-1.3,2.95c-0.27,0.76-0.49,1.52-0.67,2.31c-0.16,0.79-0.28,1.58-0.35,2.38c-0.05,0.69-0.07,1.38-0.05,2.07
			c0.04,0.64,0.1,1.28,0.2,1.91c0.13,0.72,0.31,1.43,0.51,2.14c0.25,0.79,0.55,1.56,0.89,2.31c0.41,0.87,0.88,1.7,1.39,2.52
			c0.62,0.96,1.29,1.87,2.01,2.75c0.72,0.84,1.47,1.63,2.28,2.39c1.03,0.93,2.12,1.78,3.25,2.58c0.89,0.61,1.81,1.15,2.77,1.65
			c1.12,0.56,2.27,1.05,3.45,1.48c1.15,0.4,2.32,0.72,3.51,0.99c0.88,0.19,1.77,0.32,2.65,0.48c0.36,0.06,0.72,0.08,1.08,0.12
			c0.41,0.04,0.82,0.09,1.23,0.13C220.65,62.48,221.46,62.51,222.27,62.53z"/>
		<path class="st0" d="M220.44,35.04c-0.85-0.02-1.61-0.77-1.56-1.64c0.1-2,0.3-3.99,0.51-5.97c0.1-0.99,0.23-1.98,0.37-2.96
			c0.07-0.51,0.16-1.01,0.25-1.51c0.04-0.22,0.09-0.44,0.14-0.66c0.09-0.43,0.23-0.92,0.58-1.21c0.5-0.42,1.12-0.57,1.74-0.31
			c0.19,0.08,0.38,0.21,0.52,0.37c0.46,0.48,0.56,1.2,0.29,1.78c0,0.01-0.01,0.03-0.01,0.04c-0.27,1.32-0.45,2.66-0.61,3.99
			c-0.16,1.34-0.29,2.69-0.41,4.04c-0.07,0.83-0.13,1.65-0.17,2.48c-0.04,0.86-0.73,1.56-1.6,1.56
			C220.46,35.04,220.45,35.04,220.44,35.04z"/>
		<path class="st0" d="M230.49,32.33c-0.42-0.01-0.83-0.19-1.12-0.5c-0.3-0.32-0.43-0.71-0.44-1.14c-0.05-1.81-0.04-3.63-0.02-5.44
			c0.01-0.91,0.02-1.82,0.05-2.74c0.02-0.49,0.04-0.97,0.05-1.46c0.02-0.42,0.02-0.84,0.06-1.25c0.09-0.87,0.99-1.47,1.82-1.34
			c0.42,0.06,0.81,0.3,1.06,0.64c0.23,0.32,0.32,0.69,0.29,1.08c0-0.03,0.01-0.07,0.01-0.1c-0.06,0.86-0.07,1.73-0.1,2.6
			c-0.03,0.92-0.04,1.85-0.05,2.77c-0.02,1.77-0.03,3.54,0.02,5.31c0.02,0.86-0.78,1.56-1.6,1.56
			C230.51,32.33,230.5,32.33,230.49,32.33z"/>
		<path class="st0" d="M223.03,127.75c-3.48-0.15-6.97-0.34-10.43-0.7c-1.77-0.18-3.53-0.41-5.29-0.74
			c-0.77-0.15-1.56-0.31-2.29-0.6c-0.39-0.16-0.83-0.33-1.15-0.61c-0.37-0.32-0.67-0.66-0.88-1.12c-0.22-0.5-0.28-1.05-0.3-1.59
			c-0.02-0.46-0.03-0.91-0.01-1.37c0.07-1.61,0.21-3.22,0.32-4.84c0.11-1.69,0.22-3.39,0.33-5.08c0.22-3.35,0.49-6.7,0.74-10.04
			c0.26-3.43,0.51-6.86,0.75-10.29c0.25-3.5,0.5-7.01,0.8-10.51c0.31-3.67,0.65-7.34,0.98-11.01c0.13-1.41,0.26-2.82,0.39-4.24
			c0.06-0.68,0.13-1.35,0.19-2.03c0.03-0.35,0.07-0.7,0.1-1.05c0.03-0.29,0.04-0.6,0.15-0.87c0.3-0.73,1.16-1.13,1.92-0.92
			c0.79,0.23,1.25,1.01,1.13,1.8c0,0,0-0.01,0-0.01c-0.09,0.53-0.1,1.08-0.15,1.61c-0.07,0.7-0.13,1.4-0.19,2.11
			c-0.12,1.32-0.25,2.64-0.37,3.95c-0.26,2.82-0.51,5.64-0.76,8.46c-0.28,3.34-0.56,6.69-0.8,10.04c-0.25,3.62-0.51,7.23-0.78,10.85
			c-0.25,3.35-0.53,6.7-0.76,10.05c-0.24,3.35-0.44,6.71-0.67,10.07c-0.06,0.95-0.15,1.9-0.15,2.85c0.01,0.23,0.02,0.46,0.05,0.69
			c0.08,0.04,0.17,0.08,0.26,0.11c0.46,0.15,0.92,0.27,1.39,0.38c0.93,0.18,1.86,0.35,2.8,0.47c1.12,0.14,2.23,0.27,3.35,0.38
			c2.8,0.23,5.61,0.41,8.42,0.56c2.78,0.15,5.57,0.13,8.35,0.03c2.31-0.11,4.63-0.24,6.93-0.48c2.3-0.24,4.58-0.55,6.86-0.94
			c-0.03,0.01-0.07,0.01-0.1,0.02c1.06-0.18,2.14-0.33,3.17-0.62c0.04-0.01,0.08-0.03,0.12-0.04c0.03-0.02,0.06-0.03,0.09-0.05
			c0.02-0.02,0.04-0.04,0.05-0.05c0.01-0.01,0.02-0.03,0.03-0.04c0,0.01-0.01,0.01-0.01,0.02c0,0,0,0,0.01-0.01
			c0.03-0.05,0.06-0.1,0.09-0.15c0.06-0.14,0.12-0.28,0.18-0.42c0.07-0.24,0.14-0.47,0.19-0.71c0.13-0.64,0.2-1.28,0.27-1.94
			c0.09-1.56,0.14-3.13,0.12-4.7c-0.02-1.73-0.07-3.45-0.14-5.17c0,0.07,0.01,0.14,0.01,0.21c-0.3-6.87-0.73-13.74-1.57-20.56
			c-0.44-3.55-0.94-7.1-1.43-10.64c-0.47-3.38-0.89-6.77-1.27-10.17c-0.39-3.5-0.75-7.01-1.2-10.51c-0.11-0.87,0.57-1.67,1.42-1.76
			c0.88-0.09,1.65,0.56,1.76,1.42c0.41,3.18,0.74,6.37,1.09,9.56c0.37,3.4,0.78,6.79,1.25,10.18c0.47,3.4,0.97,6.79,1.39,10.2
			c0.43,3.45,0.79,6.9,1.06,10.36c0.27,3.51,0.48,7.03,0.64,10.55c0.15,3.49,0.32,7.01,0.11,10.51c-0.07,1.1-0.16,2.21-0.42,3.29
			c-0.22,0.93-0.54,1.84-1.17,2.58c-0.25,0.29-0.56,0.57-0.9,0.74c-0.37,0.19-0.74,0.32-1.13,0.44c-0.34,0.1-0.7,0.16-1.05,0.23
			c-0.41,0.08-0.82,0.15-1.22,0.23c-0.78,0.14-1.56,0.27-2.34,0.39c-3.34,0.52-6.69,0.88-10.06,1.08c-2.27,0.14-4.55,0.22-6.82,0.22
			C225.33,127.82,224.18,127.8,223.03,127.75z"/>
		<path class="st0" d="M205.1,166.72c-0.74-0.29-1.38-0.8-1.92-1.38c-0.64-0.68-1.12-1.55-1.38-2.45c-0.51-1.79-0.23-3.91,1.25-5.17
			c0.88-0.75,2.08-0.84,3.19-0.85c0.68-0.01,1.36,0.13,2.02,0.27c0.66,0.14,1.32,0.32,1.96,0.56c1.14,0.42,2.18,1.05,3.31,1.49
			c0.01,0,0.02,0.01,0.03,0.01c0.05-0.29,0.08-0.58,0.11-0.87c0.26-3.21,0.48-6.41,0.74-9.62c0.27-3.44,0.57-6.88,0.9-10.32
			c0.36-3.75,0.69-7.51,1.14-11.25c0.1-0.87,0.98-1.47,1.82-1.34c0.88,0.13,1.44,0.96,1.34,1.82c-0.33,2.77-0.58,5.55-0.85,8.33
			c-0.27,2.83-0.54,5.66-0.79,8.5c0-0.02,0-0.05,0.01-0.07c0,0.04-0.01,0.08-0.01,0.12c0,0.03-0.01,0.06-0.01,0.09
			c0-0.02,0-0.04,0.01-0.07c-0.28,3.33-0.53,6.66-0.78,9.99c-0.06,0.8-0.12,1.6-0.18,2.39c-0.07,0.84-0.11,1.69-0.22,2.53
			c-0.04,0.32-0.1,0.64-0.21,0.95c-0.16,0.44-0.39,0.82-0.67,1.19c-0.13,0.17-0.27,0.31-0.43,0.44c0.02,0.31-0.05,0.64-0.22,0.92
			c-0.65,1.07-1.47,2.01-2.5,2.73c-1.34,0.95-2.94,1.39-4.56,1.49c-0.17,0.01-0.35,0.02-0.52,0.02
			C206.78,167.18,205.93,167.04,205.1,166.72z M207.86,163.98c0.31-0.02,0.61-0.05,0.92-0.09c0.28-0.05,0.55-0.12,0.82-0.19
			c0.18-0.06,0.35-0.13,0.52-0.2c0.19-0.1,0.38-0.2,0.57-0.31c0.19-0.13,0.38-0.26,0.56-0.41c0.16-0.14,0.32-0.29,0.46-0.45
			c0.09-0.1,0.17-0.2,0.26-0.31c-0.26-0.11-0.52-0.23-0.77-0.35c-0.75-0.35-1.48-0.73-2.26-1.03c-0.43-0.13-0.86-0.25-1.3-0.36
			c-0.34-0.07-0.68-0.14-1.03-0.18c-0.22-0.01-0.43-0.02-0.65-0.02c-0.21,0.01-0.41,0.03-0.61,0.05c-0.09,0.02-0.17,0.03-0.26,0.05
			c-0.01,0.01-0.01,0.01-0.02,0.02c-0.02,0.03-0.05,0.06-0.07,0.09c-0.03,0.05-0.06,0.1-0.09,0.15c-0.02,0.04-0.04,0.08-0.05,0.12
			c-0.02,0.06-0.04,0.13-0.06,0.19c-0.01,0.08-0.03,0.16-0.04,0.24c-0.01,0.1-0.01,0.19-0.01,0.29c0.01,0.16,0.03,0.31,0.05,0.47
			c0.02,0.09,0.04,0.18,0.07,0.27c0.03,0.1,0.07,0.2,0.11,0.3c0.07,0.14,0.13,0.27,0.21,0.4c0.08,0.12,0.16,0.23,0.25,0.35
			c0.09,0.1,0.18,0.2,0.27,0.29c0.09,0.08,0.18,0.15,0.28,0.22c0.05,0.03,0.11,0.07,0.16,0.1c0.1,0.05,0.2,0.09,0.3,0.13
			c0.11,0.03,0.22,0.06,0.33,0.09c0.13,0.02,0.25,0.04,0.38,0.06C207.4,163.98,207.63,163.98,207.86,163.98z"/>
		<path class="st0" d="M242.12,165.49c-0.86-0.19-1.67-0.46-2.45-0.87c-1.46-0.76-2.6-2-3.4-3.43c-0.19-0.34-0.23-0.72-0.15-1.08
			c-0.34-0.36-0.53-0.84-0.6-1.32c-0.13-0.92-0.12-1.86-0.15-2.79c-0.03-0.79-0.05-1.58-0.07-2.37c-0.1-3.41-0.17-6.83-0.24-10.24
			c-0.07-3.85-0.14-7.7-0.28-11.55c-0.05-1.13-0.14-2.27-0.16-3.4c-0.01-0.87,0.79-1.58,1.64-1.56c0.9,0.02,1.55,0.77,1.56,1.64
			c0,0.01,0,0.03,0,0.04c0.08,1.62,0.17,3.25,0.22,4.87c0.06,1.84,0.1,3.69,0.14,5.53c0.07,3.34,0.12,6.68,0.2,10.02
			c0.06,2.73,0.13,5.45,0.23,8.18c0.46-0.25,0.92-0.51,1.39-0.74c0.71-0.34,1.43-0.61,2.2-0.78c0.91-0.2,1.87-0.2,2.79-0.08
			c0.26,0.03,0.52,0.07,0.78,0.1c0.48,0.06,0.93,0.2,1.38,0.36c0.88,0.32,1.68,0.9,2.32,1.57c0.52,0.54,0.94,1.24,1.12,1.97
			c0.19,0.78,0.18,1.54-0.04,2.31c-0.43,1.5-1.76,2.74-3.18,3.32c-0.49,0.2-1.01,0.36-1.53,0.43c-0.47,0.07-0.93,0.1-1.41,0.11
			c-0.08,0-0.16,0-0.24,0C243.5,165.72,242.79,165.63,242.12,165.49z M244.74,162.51c0.22-0.02,0.43-0.04,0.64-0.07
			c0.18-0.04,0.35-0.09,0.53-0.14c0.09-0.03,0.17-0.06,0.26-0.1c0.1-0.05,0.21-0.1,0.31-0.16c0.13-0.09,0.26-0.19,0.39-0.29
			c0.09-0.08,0.17-0.16,0.25-0.24c0.06-0.08,0.12-0.15,0.18-0.23c0.03-0.05,0.06-0.1,0.09-0.15c0.02-0.04,0.04-0.09,0.06-0.13
			c0.02-0.07,0.04-0.15,0.06-0.22c0-0.03,0.01-0.06,0.01-0.09c0-0.04,0-0.07,0-0.11c0-0.04-0.01-0.08-0.01-0.12
			c-0.01-0.05-0.02-0.1-0.03-0.15c-0.01-0.03-0.02-0.06-0.03-0.09c-0.04-0.08-0.08-0.15-0.12-0.23c-0.03-0.04-0.06-0.09-0.09-0.13
			c-0.08-0.09-0.17-0.18-0.26-0.27c-0.1-0.09-0.21-0.17-0.31-0.25c-0.13-0.08-0.26-0.16-0.39-0.23c-0.15-0.07-0.31-0.14-0.46-0.2
			c-0.06-0.02-0.11-0.03-0.17-0.05c-0.44-0.08-0.89-0.14-1.33-0.18c-0.25-0.01-0.5-0.02-0.75-0.01c-0.18,0.01-0.36,0.03-0.54,0.05
			c-0.21,0.04-0.41,0.09-0.62,0.14c-0.28,0.1-0.56,0.2-0.83,0.32c-0.7,0.35-1.39,0.73-2.08,1.1c0.07,0.1,0.14,0.19,0.21,0.28
			c0.18,0.21,0.38,0.41,0.58,0.61c0.11,0.09,0.22,0.18,0.33,0.27c0.23,0.15,0.47,0.29,0.72,0.42c0.19,0.08,0.38,0.16,0.57,0.24
			c0.22,0.07,0.43,0.14,0.65,0.19c0.42,0.08,0.83,0.15,1.26,0.19C244.12,162.51,244.43,162.52,244.74,162.51z"/>
		<path class="st0" d="M210.67,39.14c-0.86-0.01-1.56-0.79-1.54-1.64c0.02-0.89,0.77-1.56,1.64-1.56c0.14,0,0.3,0.02,0.44,0.04
			c1.14,0.08,2.28,0.04,3.42,0.01c6.9-0.37,13.8-0.82,20.68-1.41c2.67-0.23,5.34-0.51,8.01-0.77c0.87-0.08,1.67,0.55,1.76,1.42
			c0.09,0.86-0.56,1.68-1.42,1.76c-1.62,0.15-3.23,0.34-4.85,0.49c-1.69,0.16-3.38,0.3-5.08,0.45c-3.36,0.29-6.72,0.51-10.08,0.73
			c-2.2,0.14-4.4,0.29-6.59,0.41c-1.4,0.08-2.82,0.18-4.23,0.18C212.11,39.24,211.39,39.21,210.67,39.14z"/>
		<path class="st0" d="M221.32,59.47c-1.07-0.3-2.08-0.79-3.08-1.26c-0.81-0.37-1.58-0.84-2.35-1.3c-0.18-0.11-0.36-0.23-0.53-0.36
			c-0.27-0.19-0.56-0.36-0.81-0.56c-0.6-0.48-1.19-0.96-1.75-1.49c-1.06-1-1.94-2.17-2.68-3.42c-0.69-1.17-1.16-2.45-1.54-3.74
			c-0.57-1.99-0.74-4.07-0.59-6.13c0.07-1,0.16-2.01,0.28-3c0.1-0.87,0.98-1.47,1.82-1.34c0.88,0.14,1.45,0.96,1.34,1.82
			c-0.08,0.65-0.14,1.3-0.2,1.95c-0.06,0.89-0.11,1.78-0.09,2.67c0.03,0.57,0.1,1.14,0.19,1.71c0.12,0.66,0.28,1.31,0.48,1.95
			c0.17,0.53,0.37,1.04,0.59,1.55c0.22,0.47,0.46,0.92,0.73,1.36c0.31,0.47,0.64,0.92,0.99,1.36c0.37,0.42,0.75,0.82,1.16,1.21
			c0.41,0.36,0.83,0.7,1.25,1.03c0.44,0.31,0.88,0.61,1.34,0.89c0.52,0.32,1.05,0.6,1.59,0.89c0.77,0.35,1.54,0.71,2.34,1.01
			c0.36,0.12,0.72,0.22,1.09,0.31c0.41,0.08,0.83,0.15,1.24,0.19c0.56,0.04,1.12,0.05,1.69,0.04c0.69-0.04,1.36-0.13,2.05-0.21
			c0.4-0.08,0.8-0.16,1.21-0.23c0.41-0.08,0.81-0.2,1.21-0.31c0.55-0.17,1.1-0.35,1.64-0.55c0.55-0.21,1.1-0.44,1.64-0.67
			c0.45-0.21,0.9-0.42,1.34-0.66c0.44-0.23,0.87-0.48,1.3-0.73c0.35-0.23,0.69-0.48,1.02-0.74c0.34-0.3,0.67-0.61,0.99-0.93
			c-0.05,0.05-0.1,0.11-0.15,0.16c0.3-0.33,0.6-0.65,0.88-1c0.27-0.34,0.53-0.68,0.79-1.04c0.5-0.76,0.96-1.53,1.38-2.33
			c0.23-0.49,0.44-0.98,0.63-1.48c0.18-0.56,0.33-1.13,0.47-1.7c0.25-1.24,0.45-2.49,0.57-3.76c0.05-0.71,0.07-1.42,0.05-2.13
			c-0.04-0.63-0.1-1.25-0.2-1.87c-0.01-0.04-0.01-0.07-0.02-0.11c-0.08-0.41-0.04-0.82,0.18-1.19c0.22-0.37,0.59-0.64,1-0.74
			c0.82-0.19,1.77,0.33,1.93,1.19c0.27,1.42,0.35,2.87,0.29,4.31c-0.07,1.65-0.34,3.3-0.68,4.92c-0.2,0.94-0.49,1.85-0.82,2.75
			c-0.29,0.79-0.71,1.55-1.12,2.28c-0.43,0.76-0.9,1.48-1.42,2.18c-0.25,0.34-0.51,0.66-0.77,0.98c-0.12,0.15-0.26,0.29-0.39,0.43
			c-0.16,0.18-0.32,0.36-0.49,0.52c-0.44,0.43-0.89,0.84-1.37,1.23c-0.58,0.47-1.21,0.84-1.85,1.22c-0.7,0.42-1.44,0.76-2.18,1.11
			c-0.81,0.38-1.65,0.69-2.49,1c-0.39,0.15-0.8,0.25-1.2,0.38c-0.47,0.15-0.96,0.25-1.43,0.38c-0.42,0.11-0.85,0.17-1.27,0.25
			c-0.47,0.09-0.94,0.13-1.41,0.19c-0.61,0.08-1.23,0.11-1.84,0.11C223.96,60.02,222.61,59.84,221.32,59.47z"/>
		<path class="st0" d="M186.33,108.17c-0.8-0.23-1.38-1.16-1.1-1.98c0.29-0.83,0.59-1.65,0.89-2.47c0.29-0.77,0.56-1.56,0.88-2.32
			c0.64-1.57,1.33-3.11,2.04-4.65c1.48-3.2,3.05-6.37,4.63-9.52c0.26-0.52,0.52-1.04,0.78-1.56c-0.01,0.02-0.02,0.05-0.04,0.07
			c1.58-3.09,3.2-6.15,4.79-9.23c-0.03,0.06-0.06,0.12-0.1,0.19c1.21-2.43,2.41-4.86,3.6-7.31c0.64-1.32,1.28-2.65,1.95-3.96
			c0.3-0.57,0.59-1.15,0.89-1.71c0.48-0.89,0.97-2.16,2.11-2.28c0.87-0.09,1.67,0.56,1.76,1.42c0.05,0.46-0.11,0.9-0.4,1.23
			c-0.02,0.03-0.04,0.06-0.06,0.08c-0.58,0.93-1.05,1.93-1.55,2.91c0.03-0.06,0.06-0.12,0.1-0.19c-1.4,2.8-2.74,5.63-4.13,8.44
			c-0.81,1.63-1.63,3.24-2.46,4.86c-0.71,1.37-1.45,2.74-2.16,4.11c0.03-0.06,0.06-0.12,0.1-0.19c-0.5,0.98-1,1.96-1.5,2.94
			c-1.6,3.18-3.18,6.36-4.72,9.58c-0.74,1.55-1.44,3.12-2.13,4.69c-0.65,1.49-1.2,3.03-1.76,4.56c-0.06,0.16-0.11,0.31-0.17,0.47
			c-0.09,0.24-0.17,0.48-0.26,0.73c-0.14,0.41-0.39,0.76-0.78,0.97c-0.23,0.13-0.5,0.19-0.76,0.19
			C186.62,108.23,186.47,108.21,186.33,108.17z"/>
		<path class="st0" d="M262.55,76.79c-2.3-0.31-4.5-1.28-6.43-2.53c-0.57-0.37-1.12-0.78-1.66-1.19c-0.34-0.26-0.69-0.52-1.02-0.79
			c-0.68-0.56-1.36-1.12-2.01-1.71c-0.34-0.3-0.67-0.6-1-0.9c-0.39-0.35-0.75-0.74-1.12-1.11c-0.65-0.65-1.24-1.35-1.84-2.04
			c-0.57-0.66-1.08-1.39-1.61-2.08c-0.24-0.32-0.46-0.67-0.68-1c-0.21-0.31-0.42-0.62-0.62-0.93c-0.5-0.75-0.98-1.51-1.52-2.23
			c-0.57-0.56-0.64-1.51-0.13-2.14c0.55-0.68,1.56-0.8,2.25-0.26c0.28,0.22,0.48,0.53,0.69,0.81c0.21,0.29,0.4,0.59,0.6,0.88
			c0.32,0.47,0.62,0.95,0.94,1.43c0.36,0.53,0.7,1.09,1.09,1.6c0.42,0.55,0.84,1.11,1.26,1.66c0.45,0.52,0.9,1.04,1.36,1.56
			c0.2,0.23,0.43,0.43,0.64,0.64c0.27,0.27,0.55,0.55,0.82,0.82c0.7,0.63,1.4,1.25,2.12,1.85c0.89,0.74,1.79,1.46,2.73,2.13
			c0.6,0.41,1.21,0.78,1.85,1.12c0.54,0.26,1.08,0.5,1.64,0.71c0.48,0.16,0.96,0.3,1.45,0.41c0.45,0.09,0.89,0.16,1.34,0.2
			c0.46,0.03,0.92,0.04,1.38,0.03c0.46-0.03,0.92-0.08,1.38-0.15c0.44-0.08,0.88-0.19,1.31-0.31c0.41-0.13,0.81-0.29,1.2-0.46
			c0.39-0.19,0.76-0.39,1.13-0.61c0.39-0.26,0.77-0.53,1.14-0.82c0.3-0.26,0.58-0.53,0.85-0.81c0.3-0.34,0.58-0.69,0.84-1.06
			c0.36-0.54,0.69-1.1,1-1.68c0.38-0.76,0.72-1.55,1.07-2.33c0.21-0.49,0.39-1,0.58-1.5c0.15-0.47,0.3-0.94,0.46-1.41
			c0.16-0.51,0.28-1.03,0.43-1.54c0.26-0.94,0.46-1.9,0.67-2.85c0.23-1.14,0.43-2.28,0.6-3.43c0.15-1.04,0.23-2.09,0.33-3.14
			c0,0.03,0,0.06-0.01,0.08c0-0.03,0-0.06,0.01-0.09c0-0.04,0.01-0.08,0.01-0.12c0,0.04-0.01,0.07-0.01,0.11
			c0.06-0.73,0.12-1.47,0.15-2.21c0.04-0.87,0.75-1.58,1.64-1.56c0.86,0.02,1.6,0.77,1.56,1.64c-0.08,1.7-0.23,3.4-0.43,5.09
			c-0.22,1.8-0.56,3.57-0.95,5.34c-0.17,0.78-0.36,1.55-0.57,2.32c-0.11,0.41-0.21,0.83-0.34,1.24c-0.16,0.48-0.31,0.97-0.47,1.45
			c-0.26,0.79-0.58,1.56-0.92,2.32c-0.73,1.65-1.53,3.25-2.62,4.69c-1.39,1.84-3.36,3.19-5.48,4.06c-1.56,0.64-3.26,0.92-4.95,0.92
			C263.94,76.94,263.24,76.89,262.55,76.79z"/>
		<path class="st0" d="M278.26,54.9c-0.44-0.07-0.78-0.31-1.06-0.64c-0.76-0.93-1.41-1.95-2.07-2.95c-0.67-1-1.3-2.02-1.95-3.04
			c-0.68-1.06-1.37-2.12-2.13-3.13c-0.19-0.25-0.37-0.5-0.56-0.74c-0.3-0.39-0.62-0.81-0.68-1.32c-0.1-0.98,0.66-1.8,1.63-1.8
			c0.63,0,1.18,0.41,1.42,0.96c0.57,0.8,1.19,1.55,1.74,2.37c0.62,0.94,1.23,1.89,1.83,2.84c0.51,0.8,1.02,1.6,1.55,2.39
			c0.58,0.86,1.14,1.74,1.8,2.54c0.55,0.68,0.32,1.75-0.36,2.24c-0.27,0.2-0.61,0.3-0.94,0.3C278.42,54.92,278.34,54.91,278.26,54.9
			z"/>
		<path class="st0" d="M279.65,54.47c-0.85-0.02-1.62-0.77-1.56-1.64c0.12-1.93,0.26-3.87,0.4-5.8c0.07-0.97,0.14-1.93,0.19-2.9
			c0.03-0.52,0.06-1.03,0.08-1.55c0.03-0.56,0-1.15,0.14-1.7c0.21-0.85,1.16-1.33,1.98-1.1c0.75,0.21,1.18,0.91,1.15,1.65
			c0,0,0,0,0,0c0,0,0,0,0,0c0,0.02,0,0.04,0,0.07c0,0.03,0,0.06-0.01,0.09c0-0.01,0-0.01,0-0.02c0,0.01,0,0.02-0.01,0.04
			c-0.07,0.96-0.09,1.93-0.15,2.89c-0.05,0.9-0.12,1.8-0.18,2.69c-0.14,1.9-0.27,3.8-0.39,5.7c-0.05,0.86-0.72,1.56-1.6,1.56
			C279.67,54.47,279.66,54.47,279.65,54.47z"/>
		<path class="st0" d="M277.82,54.05c-0.65-0.52-0.84-1.6-0.25-2.25c1.2-1.33,2.43-2.61,3.67-3.9c1.27-1.33,2.5-2.68,3.75-4.03
			c0.59-0.64,1.69-0.55,2.26,0.05c0.29,0.31,0.45,0.72,0.44,1.14c-0.01,0.44-0.2,0.8-0.5,1.12c-1.2,1.3-2.39,2.61-3.61,3.89
			c-1.07,1.13-2.16,2.25-3.21,3.39c-0.1,0.11-0.2,0.22-0.3,0.33c-0.29,0.32-0.64,0.55-1.09,0.6c-0.06,0.01-0.11,0.01-0.17,0.01
			C278.46,54.39,278.1,54.27,277.82,54.05z"/>
		<path class="st0" d="M278.25,56.22c-0.41-0.12-0.77-0.4-0.97-0.78c-0.4-0.74-0.14-1.8,0.65-2.17c1.66-0.78,3.32-1.56,4.98-2.35
			c1.71-0.81,3.38-1.68,5.11-2.45c0.8-0.36,1.77,0.15,2.06,0.93c0.15,0.39,0.14,0.83-0.03,1.2c-0.18,0.41-0.5,0.68-0.9,0.86
			c-0.04,0.02-0.07,0.03-0.11,0.05c-1.55,0.71-3.07,1.49-4.61,2.22c-1.66,0.78-3.32,1.57-4.98,2.35c-0.25,0.12-0.51,0.19-0.78,0.19
			C278.53,56.28,278.39,56.26,278.25,56.22z"/>
		<path class="st0" d="M278.92,56.31c-2.34-0.99-4.63-2.1-6.92-3.21c-1.21-0.59-2.42-1.17-3.59-1.82c-0.63-0.35-1.25-0.72-1.87-1.1
			c-0.25-0.16-0.51-0.33-0.74-0.51c-0.15-0.12-0.3-0.23-0.45-0.35c-0.23-0.18-0.4-0.4-0.55-0.65c-0.42-0.68-0.13-1.6,0.47-2.05
			c0.18-0.13,0.38-0.22,0.59-0.27c0.63-0.16,1.28,0.11,1.65,0.6c0.09,0.07,0.18,0.14,0.26,0.2c0.89,0.6,1.82,1.13,2.76,1.66
			c1.55,0.79,3.11,1.54,4.68,2.29c1.65,0.79,3.3,1.57,4.99,2.28c0.8,0.34,1.18,1.31,0.83,2.11c-0.26,0.6-0.86,0.96-1.48,0.96
			C279.34,56.44,279.13,56.4,278.92,56.31z M266.73,49.42c0.02-0.01,0.04-0.01,0.06-0.02c0.06-0.03,0.12-0.06,0.19-0.09
			c0.06-0.04,0.11-0.07,0.17-0.11c0,0,0,0,0-0.01C267.02,49.29,266.88,49.36,266.73,49.42z"/>
		<path class="st0" d="M187.71,120.15c-0.63-0.63-1.12-1.35-1.58-2.12c-0.53-0.88-0.95-1.86-1.29-2.83
			c-0.68-1.95-0.91-4.05-0.73-6.1c0.04-0.43,0.14-0.85,0.24-1.26c0.1-0.38,0.23-0.8,0.44-1.15c0.33-0.55,0.87-0.91,1.52-0.91
			c0.87,0,1.58,0.78,1.56,1.64c-0.01,0.35-0.13,0.67-0.33,0.92c-0.06,0.19-0.12,0.38-0.17,0.58c-0.05,0.26-0.09,0.52-0.11,0.79
			c-0.02,0.36-0.03,0.71-0.02,1.07c0.03,0.52,0.08,1.04,0.16,1.55c0.1,0.52,0.22,1.02,0.36,1.53c0.13,0.4,0.28,0.79,0.44,1.18
			c0.28,0.6,0.58,1.19,0.91,1.76c0.18,0.27,0.38,0.54,0.58,0.8c0.1,0.11,0.21,0.23,0.32,0.34c0.62,0.62,0.57,1.67-0.05,2.26
			c-0.31,0.29-0.7,0.44-1.09,0.44C188.45,120.64,188.03,120.47,187.71,120.15z"/>
		<path class="st0" d="M191.81,116.18c-1.03-0.94-2.07-1.86-3.1-2.79c-0.54-0.48-1.09-0.96-1.63-1.45
			c-0.26-0.24-0.52-0.48-0.78-0.72c-0.41-0.38-0.87-0.77-1.13-1.26c-0.51-0.95,0.11-2.29,1.24-2.35c0.14-0.01,0.28-0.02,0.41,0.01
			c0.43,0.09,0.8,0.29,1.06,0.64c0.02,0.03,0.04,0.06,0.06,0.09c0.33,0.35,0.69,0.67,1.04,1c1.61,1.44,3.23,2.86,4.83,4.32
			c0.32,0.3,0.55,0.64,0.59,1.09c0.04,0.41-0.08,0.84-0.34,1.16c-0.3,0.38-0.81,0.61-1.3,0.61
			C192.42,116.54,192.08,116.43,191.81,116.18z"/>
		<path class="st0" d="M193.81,112.27c-1.73-0.86-3.47-1.71-5.24-2.49c-0.16-0.05-0.32-0.11-0.48-0.15
			c-0.54,0.04-1.1-0.18-1.41-0.65c-0.29-0.43-0.37-0.9-0.24-1.4c0.14-0.54,0.62-1.01,1.17-1.12c0.83-0.17,1.7,0.15,2.46,0.48
			c0.57,0.25,1.14,0.52,1.7,0.79c1.11,0.53,2.22,1.06,3.32,1.6c0.39,0.19,0.7,0.49,0.86,0.9c0.15,0.39,0.14,0.82-0.03,1.2
			c-0.25,0.58-0.87,0.97-1.49,0.97C194.21,112.41,194,112.37,193.81,112.27z"/>
		<path class="st0" d="M181.19,120.35c-0.84-0.24-1.34-1.14-1.1-1.98c0.46-1.55,0.94-3.1,1.44-4.64c0.26-0.83,0.53-1.66,0.81-2.48
			c0.42-1.24,0.91-2.47,1.61-3.57c0.47-0.74,1.44-1.01,2.2-0.55c0.74,0.44,1.02,1.46,0.55,2.2c-0.14,0.22-0.27,0.44-0.4,0.67
			c-0.35,0.72-0.62,1.47-0.9,2.22c-0.78,2.33-1.53,4.68-2.22,7.05c-0.2,0.69-0.85,1.16-1.55,1.16
			C181.48,120.41,181.34,120.39,181.19,120.35z"/>
	</g>
	<g>
		<path class="st0" d="M540.5,65.7c-0.46-0.02-0.92-0.03-1.38-0.05c-0.43-0.02-0.86-0.09-1.29-0.14c-0.45-0.05-0.91-0.1-1.36-0.15
			c-0.42-0.04-0.84-0.15-1.25-0.22c-0.41-0.07-0.83-0.15-1.24-0.22c-1.21-0.21-2.41-0.56-3.58-0.94c-2.2-0.71-4.33-1.68-6.32-2.87
			c-0.99-0.59-1.94-1.28-2.86-1.98c-0.98-0.74-1.9-1.56-2.78-2.41c-1.75-1.68-3.23-3.63-4.49-5.7c-1.26-2.05-2.17-4.29-2.71-6.63
			c-0.53-2.29-0.55-4.66-0.24-6.98c0.31-2.35,1.09-4.61,2.1-6.74c2.04-4.28,5.07-8.11,8.68-11.18c1.49-1.26,3.1-2.43,4.82-3.36
			c0.8-0.44,1.59-0.9,2.42-1.28c0.82-0.37,1.62-0.76,2.46-1.06c0.53-0.19,1.06-0.39,1.58-0.58c0.33-0.12,0.68-0.21,1.02-0.31
			c0.52-0.15,1.03-0.3,1.55-0.45c0.36-0.1,0.72-0.17,1.09-0.26c0.43-0.1,0.86-0.2,1.29-0.3c0.48-0.11,0.96-0.18,1.44-0.27
			c0.93-0.17,1.86-0.3,2.79-0.43c0.31-0.04,0.61-0.08,0.92-0.1c0.53-0.04,1.06-0.11,1.59-0.12c0.45-0.01,0.9-0.01,1.35-0.02
			c0.43-0.01,0.86,0.02,1.29,0.04c0.74,0.03,1.48,0.1,2.21,0.23c0.47,0.08,0.92,0.2,1.38,0.34c0.18-0.04,0.37-0.04,0.56,0
			c3.28,0.71,6.56,1.49,9.71,2.65c1.56,0.58,3.06,1.29,4.52,2.09c0.74,0.41,1.47,0.84,2.16,1.32c0.74,0.52,1.45,1.06,2.14,1.64
			c1.38,1.15,2.58,2.51,3.71,3.9c1.02,1.27,1.92,2.67,2.67,4.11c0.42,0.81,0.82,1.63,1.16,2.48c0.34,0.86,0.62,1.73,0.86,2.62
			c0.22,0.82,0.36,1.65,0.44,2.49c0.05,0.54,0.05,1.08,0.07,1.61c0.02,0.45-0.01,0.92-0.05,1.38c-0.04,0.4-0.05,0.81-0.11,1.21
			c-0.07,0.46-0.12,0.92-0.22,1.37c-0.09,0.4-0.15,0.81-0.27,1.2c-0.14,0.44-0.25,0.9-0.42,1.33c-0.15,0.39-0.28,0.79-0.45,1.16
			c-0.2,0.44-0.39,0.89-0.62,1.32c-0.21,0.4-0.42,0.8-0.62,1.2c-0.42,0.8-0.92,1.55-1.41,2.3c-0.44,0.68-0.93,1.34-1.46,1.95
			c-0.3,0.35-0.59,0.72-0.91,1.05c-0.36,0.37-0.72,0.75-1.08,1.12c-0.54,0.56-1.13,1.09-1.71,1.6c-0.74,0.65-1.49,1.28-2.25,1.9
			c-0.64,0.52-1.32,1-1.99,1.49c-0.32,0.23-0.66,0.43-0.99,0.64c-0.34,0.22-0.67,0.45-1.02,0.65c-0.78,0.46-1.56,0.92-2.37,1.33
			c-0.44,0.23-0.88,0.45-1.33,0.68c-0.4,0.2-0.82,0.37-1.23,0.55c-0.39,0.17-0.78,0.35-1.17,0.52c-0.41,0.18-0.85,0.32-1.27,0.48
			c-0.38,0.14-0.75,0.29-1.13,0.43c-0.44,0.17-0.9,0.28-1.35,0.42c-0.4,0.13-0.8,0.25-1.19,0.38c-0.44,0.14-0.9,0.24-1.35,0.35
			c-0.47,0.12-0.94,0.24-1.41,0.35c-0.37,0.09-0.75,0.14-1.12,0.21c-0.5,0.09-1,0.18-1.5,0.28c-0.39,0.07-0.8,0.1-1.19,0.14
			c-0.5,0.05-1.01,0.11-1.51,0.16c-0.39,0.04-0.79,0.03-1.18,0.04c-0.49,0.02-0.99,0.03-1.48,0.05c-0.05,0-0.1,0-0.16,0
			C541.15,65.74,540.82,65.71,540.5,65.7z M541.66,62.53c0.41,0.01,0.82-0.03,1.23-0.04c0.35-0.01,0.7-0.02,1.05-0.04
			c0.82-0.09,1.63-0.18,2.45-0.26c0.81-0.15,1.63-0.3,2.45-0.45c0.44-0.08,0.87-0.22,1.31-0.33c0.43-0.11,0.86-0.22,1.29-0.32
			c0.62-0.2,1.25-0.39,1.87-0.59c0.5-0.16,0.98-0.34,1.47-0.53c0.53-0.2,1.07-0.39,1.59-0.62c0.62-0.28,1.24-0.55,1.85-0.83
			c0.65-0.33,1.3-0.66,1.95-0.99c0.27-0.14,0.53-0.31,0.79-0.46c0.33-0.19,0.66-0.38,0.99-0.58c0.77-0.5,1.54-1,2.28-1.54
			c0.38-0.28,0.76-0.54,1.12-0.84c0.42-0.34,0.83-0.68,1.25-1.01c0.6-0.53,1.2-1.05,1.78-1.6c0.62-0.59,1.22-1.2,1.81-1.82
			c0.31-0.37,0.63-0.73,0.94-1.1c0.15-0.18,0.28-0.38,0.42-0.56c0.15-0.2,0.3-0.4,0.45-0.61c0.36-0.55,0.72-1.1,1.05-1.67
			c0.34-0.59,0.66-1.19,0.98-1.8c0.17-0.37,0.34-0.75,0.51-1.12c0.15-0.33,0.27-0.67,0.39-1.01c0.11-0.36,0.22-0.73,0.33-1.09
			c0.11-0.37,0.17-0.77,0.26-1.14c-0.01,0.05-0.02,0.11-0.04,0.16c0.06-0.4,0.12-0.8,0.18-1.2c0.06-0.39,0.07-0.79,0.1-1.19
			c-0.01,0.07-0.01,0.14-0.02,0.2c0.01-0.39,0.02-0.78,0.03-1.17c0.01-0.31-0.01-0.62-0.03-0.93c-0.03-0.42-0.08-0.84-0.14-1.26
			c-0.11-0.6-0.27-1.19-0.43-1.78c-0.11-0.32-0.21-0.64-0.32-0.95c-0.11-0.34-0.27-0.67-0.4-1.01c-0.29-0.63-0.6-1.25-0.92-1.86
			c-0.31-0.59-0.67-1.16-1.02-1.73c-0.59-0.85-1.19-1.67-1.84-2.47c-0.64-0.72-1.3-1.42-1.99-2.09c-0.43-0.39-0.87-0.77-1.32-1.14
			c-0.43-0.36-0.9-0.68-1.36-1c-0.75-0.48-1.51-0.93-2.29-1.36c-1.34-0.68-2.71-1.29-4.12-1.81c-2.34-0.79-4.73-1.42-7.13-1.97
			c-0.47,0.2-1.02,0.17-1.48-0.09c-0.08-0.04-0.17-0.07-0.26-0.1c-0.48-0.15-0.95-0.3-1.44-0.42c-0.47-0.09-0.94-0.16-1.41-0.2
			c-1.03-0.08-2.06-0.07-3.09-0.05c-0.28,0.02-0.57,0.05-0.85,0.07c-0.32,0.02-0.64,0.03-0.95,0.08c-0.71,0.1-1.42,0.2-2.12,0.3
			c-0.57,0.11-1.14,0.21-1.71,0.32c-0.52,0.1-1.03,0.22-1.55,0.34c-0.51,0.12-1.02,0.23-1.52,0.37c-0.58,0.17-1.16,0.34-1.74,0.51
			c-0.75,0.27-1.49,0.55-2.24,0.82c-0.35,0.13-0.7,0.31-1.04,0.47c-0.34,0.15-0.68,0.3-1.02,0.46c-0.96,0.52-1.92,1.03-2.85,1.6
			c-1.14,0.72-2.22,1.51-3.26,2.37c-1.02,0.87-1.99,1.8-2.9,2.79c-0.97,1.08-1.87,2.21-2.71,3.4c-0.71,1.05-1.37,2.13-1.96,3.25
			c-0.49,0.96-0.92,1.94-1.3,2.95c-0.27,0.76-0.49,1.52-0.67,2.31c-0.16,0.79-0.27,1.58-0.35,2.38c-0.05,0.69-0.07,1.38-0.05,2.07
			c0.04,0.64,0.1,1.28,0.2,1.91c0.13,0.72,0.31,1.43,0.51,2.14c0.25,0.79,0.55,1.56,0.89,2.31c0.41,0.87,0.88,1.7,1.39,2.52
			c0.62,0.96,1.29,1.87,2.01,2.75c0.72,0.84,1.47,1.63,2.28,2.39c1.03,0.93,2.12,1.78,3.25,2.58c0.89,0.61,1.81,1.15,2.77,1.65
			c1.12,0.56,2.27,1.05,3.45,1.48c1.15,0.4,2.32,0.72,3.51,0.99c0.88,0.19,1.77,0.32,2.65,0.48c0.36,0.06,0.72,0.08,1.08,0.12
			c0.41,0.04,0.82,0.09,1.23,0.13C540.04,62.48,540.85,62.51,541.66,62.53z"/>
		<path class="st0" d="M542.42,127.75c-3.48-0.15-6.97-0.34-10.43-0.7c-1.77-0.18-3.53-0.41-5.29-0.74
			c-0.77-0.15-1.56-0.31-2.29-0.6c-0.39-0.16-0.83-0.33-1.15-0.61c-0.37-0.32-0.67-0.66-0.88-1.12c-0.22-0.5-0.28-1.05-0.3-1.59
			c-0.02-0.46-0.03-0.91-0.01-1.37c0.07-1.61,0.21-3.22,0.32-4.84c0.11-1.69,0.22-3.39,0.33-5.08c0.22-3.35,0.49-6.7,0.74-10.04
			c0.26-3.43,0.51-6.86,0.75-10.29c0.25-3.5,0.5-7.01,0.8-10.51c0.31-3.67,0.65-7.34,0.98-11.01c0.13-1.41,0.26-2.82,0.39-4.24
			c0.06-0.68,0.13-1.35,0.19-2.03c0.03-0.35,0.07-0.7,0.1-1.05c0.03-0.29,0.04-0.6,0.15-0.87c0.3-0.73,1.16-1.13,1.92-0.92
			c0.79,0.23,1.25,1.01,1.13,1.8c0,0,0-0.01,0-0.01c-0.09,0.53-0.1,1.08-0.15,1.61c-0.07,0.7-0.13,1.4-0.2,2.11
			c-0.12,1.32-0.25,2.64-0.37,3.95c-0.26,2.82-0.51,5.64-0.76,8.46c-0.28,3.34-0.56,6.69-0.8,10.04c-0.25,3.62-0.51,7.23-0.78,10.85
			c-0.25,3.35-0.53,6.7-0.76,10.05c-0.24,3.35-0.44,6.71-0.67,10.07c-0.06,0.95-0.15,1.9-0.15,2.85c0.01,0.23,0.02,0.46,0.05,0.69
			c0.08,0.04,0.17,0.08,0.26,0.11c0.46,0.15,0.92,0.27,1.39,0.38c0.93,0.18,1.86,0.35,2.8,0.47c1.12,0.14,2.23,0.27,3.35,0.38
			c2.8,0.23,5.61,0.41,8.42,0.56c2.78,0.15,5.57,0.13,8.35,0.03c2.31-0.11,4.63-0.24,6.93-0.48c2.3-0.24,4.58-0.55,6.86-0.94
			c-0.03,0.01-0.07,0.01-0.1,0.02c1.06-0.18,2.14-0.33,3.17-0.62c0.04-0.01,0.08-0.03,0.12-0.04c0.03-0.02,0.06-0.03,0.09-0.05
			c0.02-0.02,0.04-0.04,0.05-0.05c0.01-0.01,0.02-0.03,0.03-0.04c0,0.01-0.01,0.01-0.01,0.02c0,0,0,0,0.01-0.01
			c0.03-0.05,0.06-0.1,0.09-0.15c0.06-0.14,0.12-0.28,0.18-0.42c0.07-0.24,0.14-0.47,0.19-0.71c0.13-0.64,0.2-1.28,0.27-1.94
			c0.09-1.56,0.14-3.13,0.12-4.7c-0.02-1.73-0.07-3.45-0.14-5.17c0,0.07,0.01,0.14,0.01,0.21c-0.3-6.87-0.73-13.74-1.57-20.56
			c-0.44-3.55-0.94-7.1-1.43-10.64c-0.47-3.38-0.89-6.77-1.27-10.17c-0.39-3.5-0.75-7.01-1.2-10.51c-0.11-0.87,0.57-1.67,1.42-1.76
			c0.88-0.09,1.65,0.56,1.76,1.42c0.41,3.18,0.74,6.37,1.09,9.56c0.37,3.4,0.78,6.79,1.25,10.18c0.47,3.4,0.97,6.79,1.39,10.2
			c0.43,3.45,0.79,6.9,1.06,10.36c0.27,3.51,0.48,7.03,0.64,10.55c0.15,3.49,0.32,7.01,0.11,10.51c-0.07,1.1-0.16,2.21-0.42,3.29
			c-0.22,0.93-0.54,1.84-1.17,2.58c-0.25,0.29-0.56,0.57-0.9,0.74c-0.37,0.19-0.74,0.32-1.13,0.44c-0.34,0.1-0.7,0.16-1.05,0.23
			c-0.41,0.08-0.82,0.15-1.22,0.23c-0.78,0.14-1.56,0.27-2.34,0.39c-3.34,0.52-6.69,0.88-10.06,1.08c-2.27,0.14-4.55,0.22-6.82,0.22
			C544.72,127.82,543.57,127.8,542.42,127.75z"/>
		<path class="st0" d="M524.49,166.72c-0.74-0.29-1.38-0.8-1.92-1.38c-0.64-0.68-1.12-1.55-1.38-2.45
			c-0.51-1.79-0.23-3.91,1.25-5.17c0.88-0.75,2.08-0.84,3.19-0.85c0.68-0.01,1.36,0.13,2.02,0.27c0.66,0.14,1.32,0.32,1.96,0.56
			c1.14,0.42,2.18,1.05,3.31,1.49c0.01,0,0.02,0.01,0.03,0.01c0.05-0.29,0.08-0.58,0.11-0.87c0.26-3.21,0.49-6.41,0.74-9.62
			c0.27-3.44,0.57-6.88,0.9-10.32c0.36-3.75,0.69-7.51,1.14-11.25c0.1-0.87,0.98-1.47,1.82-1.34c0.88,0.13,1.44,0.96,1.34,1.82
			c-0.33,2.77-0.58,5.55-0.85,8.33c-0.27,2.83-0.54,5.66-0.79,8.5c0-0.02,0-0.05,0.01-0.07c0,0.04-0.01,0.08-0.01,0.12
			c0,0.03-0.01,0.06-0.01,0.09c0-0.02,0-0.04,0.01-0.07c-0.28,3.33-0.53,6.66-0.78,9.99c-0.06,0.8-0.12,1.6-0.18,2.39
			c-0.07,0.84-0.11,1.69-0.22,2.53c-0.04,0.32-0.1,0.64-0.21,0.95c-0.16,0.44-0.39,0.82-0.67,1.19c-0.13,0.17-0.27,0.31-0.43,0.44
			c0.02,0.31-0.05,0.64-0.22,0.92c-0.65,1.07-1.47,2.01-2.5,2.73c-1.34,0.95-2.94,1.39-4.56,1.49c-0.17,0.01-0.35,0.02-0.52,0.02
			C526.17,167.18,525.32,167.04,524.49,166.72z M527.25,163.98c0.31-0.02,0.61-0.05,0.92-0.09c0.28-0.05,0.55-0.12,0.82-0.19
			c0.18-0.06,0.35-0.13,0.52-0.2c0.19-0.1,0.38-0.2,0.57-0.31c0.19-0.13,0.38-0.26,0.56-0.41c0.16-0.14,0.32-0.29,0.46-0.45
			c0.09-0.1,0.17-0.2,0.26-0.31c-0.26-0.11-0.52-0.23-0.77-0.35c-0.75-0.35-1.48-0.73-2.26-1.03c-0.43-0.13-0.86-0.25-1.3-0.36
			c-0.34-0.07-0.68-0.14-1.03-0.18c-0.22-0.01-0.43-0.02-0.65-0.02c-0.21,0.01-0.41,0.03-0.61,0.05c-0.09,0.02-0.17,0.03-0.26,0.05
			c-0.01,0.01-0.01,0.01-0.02,0.02c-0.02,0.03-0.05,0.06-0.07,0.09c-0.03,0.05-0.06,0.1-0.09,0.15c-0.02,0.04-0.04,0.08-0.05,0.12
			c-0.02,0.06-0.04,0.13-0.06,0.19c-0.01,0.08-0.03,0.16-0.04,0.24c-0.01,0.1-0.01,0.19-0.01,0.29c0.01,0.16,0.03,0.31,0.05,0.47
			c0.02,0.09,0.04,0.18,0.07,0.27c0.03,0.1,0.07,0.2,0.11,0.3c0.07,0.14,0.13,0.27,0.21,0.4c0.08,0.12,0.16,0.23,0.25,0.35
			c0.09,0.1,0.18,0.2,0.27,0.29c0.09,0.08,0.18,0.15,0.28,0.22c0.05,0.03,0.11,0.07,0.16,0.1c0.1,0.05,0.2,0.09,0.3,0.13
			c0.11,0.03,0.22,0.06,0.33,0.09c0.13,0.02,0.25,0.04,0.38,0.06C526.79,163.98,527.02,163.98,527.25,163.98z"/>
		<path class="st0" d="M561.51,165.49c-0.86-0.19-1.67-0.46-2.45-0.87c-1.46-0.76-2.6-2-3.4-3.43c-0.19-0.34-0.23-0.72-0.15-1.08
			c-0.34-0.36-0.53-0.84-0.6-1.32c-0.13-0.92-0.12-1.86-0.15-2.79c-0.03-0.79-0.05-1.58-0.07-2.37c-0.1-3.41-0.17-6.83-0.24-10.24
			c-0.07-3.85-0.14-7.7-0.28-11.55c-0.05-1.13-0.14-2.27-0.16-3.4c-0.01-0.87,0.79-1.58,1.64-1.56c0.9,0.02,1.55,0.77,1.56,1.64
			c0,0.01,0,0.03,0,0.04c0.08,1.62,0.17,3.25,0.22,4.87c0.06,1.84,0.1,3.69,0.14,5.53c0.07,3.34,0.12,6.68,0.2,10.02
			c0.06,2.73,0.13,5.45,0.23,8.18c0.46-0.25,0.92-0.51,1.39-0.74c0.71-0.34,1.43-0.61,2.2-0.78c0.91-0.2,1.87-0.2,2.79-0.08
			c0.26,0.03,0.52,0.07,0.78,0.1c0.48,0.06,0.93,0.2,1.38,0.36c0.88,0.32,1.68,0.9,2.32,1.57c0.52,0.54,0.94,1.24,1.12,1.97
			c0.19,0.78,0.17,1.54-0.05,2.31c-0.43,1.5-1.76,2.74-3.18,3.32c-0.49,0.2-1.01,0.36-1.53,0.43c-0.47,0.07-0.93,0.1-1.41,0.11
			c-0.08,0-0.16,0-0.24,0C562.89,165.72,562.18,165.63,561.51,165.49z M564.13,162.51c0.22-0.02,0.43-0.04,0.64-0.07
			c0.18-0.04,0.35-0.09,0.53-0.14c0.09-0.03,0.17-0.06,0.26-0.1c0.1-0.05,0.21-0.1,0.31-0.16c0.13-0.09,0.26-0.19,0.39-0.29
			c0.09-0.08,0.17-0.16,0.25-0.24c0.06-0.08,0.12-0.15,0.18-0.23c0.03-0.05,0.06-0.1,0.09-0.15c0.02-0.04,0.04-0.09,0.06-0.13
			c0.02-0.07,0.04-0.15,0.06-0.22c0-0.03,0.01-0.06,0.01-0.09c0-0.04,0-0.07,0-0.11c0-0.04-0.01-0.08-0.01-0.12
			c-0.01-0.05-0.02-0.1-0.03-0.15c-0.01-0.03-0.02-0.06-0.03-0.09c-0.04-0.08-0.08-0.15-0.12-0.23c-0.03-0.04-0.06-0.09-0.09-0.13
			c-0.08-0.09-0.17-0.18-0.26-0.27c-0.1-0.09-0.21-0.17-0.31-0.25c-0.13-0.08-0.26-0.16-0.39-0.23c-0.15-0.07-0.31-0.14-0.46-0.2
			c-0.06-0.02-0.11-0.03-0.17-0.05c-0.44-0.08-0.89-0.14-1.33-0.18c-0.25-0.01-0.5-0.02-0.75-0.01c-0.18,0.01-0.36,0.03-0.54,0.05
			c-0.21,0.04-0.41,0.09-0.62,0.14c-0.28,0.1-0.56,0.2-0.83,0.32c-0.7,0.35-1.39,0.73-2.08,1.1c0.07,0.1,0.14,0.19,0.21,0.28
			c0.18,0.21,0.38,0.41,0.58,0.61c0.11,0.09,0.22,0.18,0.33,0.27c0.23,0.15,0.47,0.29,0.72,0.42c0.19,0.08,0.38,0.16,0.57,0.24
			c0.22,0.07,0.43,0.14,0.65,0.19c0.42,0.08,0.83,0.15,1.26,0.19C563.51,162.51,563.82,162.52,564.13,162.51z"/>
		<path class="st0" d="M539.05,40.51c-0.88-0.02-1.58-0.77-1.56-1.64c0.04-2.42,0.14-4.84,0.25-7.25c0.05-1.23,0.11-2.47,0.17-3.7
			c0.05-1.18,0.13-2.37,0.09-3.56c0-0.01,0-0.02,0-0.03c0,0,0,0.01,0,0.01c0-0.01,0-0.01,0-0.02c-0.01-0.06-0.01-0.13-0.01-0.2
			c0,0,0,0,0-0.01c0.01-0.79,0.65-1.47,1.43-1.55c0.82-0.09,1.5,0.46,1.73,1.22c0.08,0.28,0.06,0.61,0.06,0.9
			c0,0.35,0,0.7-0.01,1.06c-0.01,0.63-0.04,1.25-0.07,1.88c-0.06,1.26-0.12,2.53-0.17,3.79c-0.11,2.51-0.22,5.03-0.26,7.54
			c-0.01,0.86-0.75,1.56-1.6,1.56C539.07,40.51,539.06,40.51,539.05,40.51z"/>
		<path class="st0" d="M549.12,38.24c-0.88-0.02-1.58-0.77-1.56-1.64c0.03-2.08,0.05-4.17,0.08-6.25c0.01-1.05,0.03-2.09,0.04-3.14
			c0.01-0.55,0.01-1.1,0.02-1.65c0-0.27,0-0.55,0.01-0.82c0-0.27-0.01-0.54,0.07-0.8c0.24-0.84,1.14-1.34,1.98-1.1
			c0.7,0.2,1.17,0.87,1.16,1.58c0,0,0,0,0,0c-0.04,0.96-0.02,1.93-0.03,2.89c-0.01,1.07-0.03,2.14-0.04,3.21
			c-0.03,2.05-0.05,4.09-0.08,6.14c-0.01,0.86-0.75,1.56-1.6,1.56C549.15,38.24,549.14,38.24,549.12,38.24z"/>
		<path class="st0" d="M518.95,56.15c-0.5-0.02-1.01-0.26-1.28-0.69c-0.42-0.65-0.45-1.48-0.42-2.24c0.03-0.86,0.1-1.72,0.26-2.56
			c0.17-0.91,0.36-1.81,0.59-2.71c0.39-1.54,0.93-3.07,1.87-4.36c0.63-0.87,1.39-1.63,2.3-2.22c0.86-0.56,1.86-0.93,2.88-1.07
			c0.97-0.14,1.95-0.08,2.91,0.12c0.86,0.18,1.68,0.5,2.48,0.87c1.56,0.72,3.01,1.65,4.47,2.54c0.84,0.52,1.69,1.01,2.56,1.49
			c0.5,0.24,1,0.47,1.53,0.67c0.4,0.13,0.8,0.25,1.2,0.34c0.29,0.06,0.58,0.1,0.88,0.13c0.35,0.03,0.7,0.03,1.05,0.03
			c0.35-0.02,0.7-0.06,1.05-0.11c0.34-0.07,0.68-0.15,1.02-0.25c0.48-0.16,0.95-0.34,1.41-0.54c0.81-0.38,1.58-0.84,2.34-1.31
			c0.67-0.46,1.34-0.92,1.98-1.42c0.69-0.54,1.37-1.08,2.05-1.63c0.62-0.51,1.24-1.02,1.87-1.52c0.64-0.51,1.28-1.04,1.96-1.51
			c0.71-0.49,1.44-0.97,2.22-1.35c0.72-0.35,1.44-0.62,2.22-0.8c0.95-0.22,1.93-0.22,2.9-0.1c1.73,0.21,3.33,0.95,4.73,1.97
			c0.88,0.64,1.68,1.36,2.39,2.19c0.77,0.94,1.39,1.95,1.88,3.06c0.41,0.93,0.7,1.91,0.9,2.91c0.17,0.85-0.32,1.72-1.19,1.93
			c-0.83,0.2-1.75-0.33-1.93-1.19c-0.09-0.43-0.19-0.85-0.31-1.26c-0.15-0.46-0.32-0.91-0.51-1.35c-0.17-0.36-0.36-0.72-0.57-1.07
			c-0.21-0.33-0.44-0.65-0.69-0.95c-0.26-0.3-0.54-0.58-0.83-0.86c-0.35-0.31-0.72-0.6-1.1-0.88c-0.34-0.23-0.68-0.45-1.04-0.65
			c-0.3-0.14-0.61-0.28-0.92-0.4c-0.23-0.07-0.46-0.13-0.7-0.19c-0.28-0.05-0.55-0.09-0.83-0.13c-0.2-0.01-0.41-0.02-0.61-0.01
			c-0.22,0.02-0.43,0.04-0.65,0.07c-0.24,0.05-0.47,0.1-0.7,0.16c-0.22,0.08-0.45,0.16-0.66,0.25c-0.53,0.26-1.04,0.55-1.55,0.86
			c-2.72,1.88-5.1,4.18-7.82,6.05c-0.72,0.49-1.45,0.97-2.21,1.39c-0.63,0.34-1.27,0.66-1.93,0.93c-1.08,0.45-2.23,0.73-3.39,0.86
			c-2.04,0.23-4.07-0.23-5.94-1.02c-0.85-0.37-1.66-0.84-2.46-1.3c-0.89-0.52-1.76-1.06-2.63-1.6c-0.78-0.48-1.58-0.93-2.39-1.35
			c-0.42-0.2-0.84-0.39-1.28-0.56c-0.28-0.09-0.56-0.18-0.85-0.25c-0.25-0.05-0.49-0.08-0.74-0.11c-0.2-0.01-0.4-0.02-0.61-0.02
			c-0.17,0.01-0.35,0.03-0.52,0.05c-0.18,0.04-0.36,0.08-0.53,0.12c-0.17,0.06-0.34,0.12-0.51,0.18c-0.16,0.08-0.32,0.16-0.48,0.25
			c-0.16,0.11-0.32,0.22-0.48,0.34c-0.2,0.18-0.39,0.36-0.57,0.55c-0.16,0.19-0.31,0.37-0.45,0.57c-0.17,0.26-0.33,0.53-0.48,0.81
			c-0.15,0.32-0.29,0.64-0.41,0.96c-0.34,0.99-0.58,2.01-0.81,3.03c-0.15,0.83-0.28,1.65-0.36,2.48c-0.01,0.28-0.02,0.56-0.02,0.84
			c0.01,0.11,0.01,0.21,0.03,0.32c0.08,0.2,0.12,0.41,0.12,0.64c-0.02,0.84-0.73,1.56-1.58,1.56
			C518.99,56.15,518.97,56.15,518.95,56.15z"/>
		<path class="st0" d="M540.27,21.46c-1.35-0.23-2.69-0.48-4.04-0.74c-0.64-0.12-1.28-0.24-1.91-0.37
			c-0.36-0.08-0.73-0.15-1.09-0.23c-0.24-0.05-0.48-0.12-0.72-0.18c-0.62-0.1-1.19-0.56-1.32-1.21c0,0,0,0,0,0
			c-0.03-0.13-0.05-0.28-0.04-0.41c0.06-0.68,0.41-1.18,1.03-1.46c0.38-0.17,0.81-0.11,1.2,0c0.31,0.09,0.62,0.16,0.93,0.23
			c2.14,0.44,4.28,0.84,6.44,1.21c0.86,0.15,1.47,0.95,1.34,1.82c-0.12,0.77-0.81,1.36-1.57,1.36
			C540.44,21.48,540.36,21.47,540.27,21.46z"/>
		<path class="st0" d="M548.93,20.63c-0.82-0.36-1.15-1.29-0.83-2.1c0.25-0.65,0.93-0.9,1.52-1.15c0.43-0.18,0.87-0.33,1.3-0.5
			c1.01-0.38,2.01-0.77,3.01-1.15c0.81-0.31,1.76,0.12,2.06,0.93c0.31,0.82-0.11,1.75-0.93,2.07c-0.8,0.31-1.61,0.62-2.41,0.92
			c-0.73,0.28-1.48,0.54-2.2,0.85c-0.27,0.17-0.59,0.26-0.9,0.26C549.34,20.75,549.13,20.71,548.93,20.63z"/>
		<path class="st0" d="M516.46,108.33c-0.36-0.14-0.69-0.48-0.87-0.81c-0.45-0.83-0.19-1.83,0.34-2.56c1.07-1.45,2.75-2.21,4.26-3.1
			c-0.27-0.3-0.55-0.59-0.81-0.9c-0.52-0.6-1.03-1.21-1.5-1.84c-0.96-1.3-1.86-2.65-2.72-4.02c-0.89-1.43-1.75-2.87-2.58-4.33
			c-0.84-1.47-1.65-2.97-2.25-4.56c-0.67-1.78-1.08-3.64-0.99-5.55c0.09-2,0.95-3.85,2.26-5.35c1.13-1.29,2.37-2.48,3.63-3.64
			c2.59-2.4,5.28-4.69,8.11-6.81c0.98-0.73,1.96-1.46,2.98-2.13c0.24-0.16,0.49-0.3,0.74-0.45c0.5-0.3,1.11-0.54,1.7-0.45
			c0.67,0.1,1.22,0.61,1.39,1.26c0.21,0.85-0.35,1.73-1.19,1.93c-0.1,0.02-0.21,0.04-0.31,0.04c-0.18,0.1-0.35,0.2-0.53,0.31
			c-2.32,1.56-4.51,3.3-6.67,5.07c-2.42,2.05-4.79,4.18-6.99,6.46c-0.33,0.38-0.66,0.76-0.96,1.17c-0.14,0.21-0.27,0.43-0.39,0.65
			c-0.1,0.2-0.19,0.41-0.28,0.62c-0.07,0.21-0.13,0.42-0.19,0.64c-0.04,0.2-0.07,0.41-0.09,0.61c-0.02,0.3-0.03,0.61-0.02,0.91
			c0.02,0.39,0.06,0.78,0.12,1.17c0.09,0.48,0.2,0.95,0.33,1.41c0.25,0.79,0.57,1.55,0.91,2.3c1.24,2.5,2.66,4.9,4.14,7.26
			c1.01,1.59,2.06,3.15,3.25,4.61c0.38,0.44,0.76,0.88,1.15,1.31c0.18,0.19,0.36,0.38,0.54,0.58c0.16-0.14,0.32-0.28,0.48-0.42
			c0.29-0.25,0.57-0.51,0.91-0.7c0.52-0.29,1.1-0.21,1.6,0.05c0.31,0.16,0.55,0.49,0.68,0.81c0.15,0.4,0.12,0.81-0.03,1.2
			c-0.13,0.33-0.36,0.61-0.57,0.88c-0.17,0.21-0.34,0.42-0.52,0.63c-0.09,0.11-0.18,0.21-0.28,0.32c0.08,0.38,0.02,0.77-0.2,1.1
			c-0.6,0.87-1.3,1.66-2.19,2.25c-0.6,0.4-1.34,0.78-2.07,0.71c-0.11,0.08-0.22,0.16-0.34,0.24c-0.32,0.23-0.66,0.43-0.99,0.64
			c-0.57,0.35-1.2,0.6-1.86,0.69c-0.07,0.01-0.13,0.01-0.2,0.01C517.07,108.54,516.75,108.45,516.46,108.33z"/>
		<path class="st0" d="M564.98,60.96c-0.61-0.05-1.08-0.33-1.4-0.86c-0.46-0.77-0.08-1.72,0.53-2.28c0.4-0.37,0.84-0.68,1.26-1.02
			c0.38-0.3,0.75-0.61,1.13-0.91c0.49-0.44,0.99-0.88,1.48-1.33c0.47-0.42,0.91-0.88,1.35-1.32c0.9-0.89,1.78-1.81,2.65-2.73
			c0.56-0.62,1.12-1.23,1.68-1.84c0.49-0.54,0.95-1.1,1.41-1.65c0.42-0.5,0.84-0.99,1.23-1.5c0.53-0.7,1.06-1.41,1.6-2.11
			c1.18-1.72,2.35-3.44,3.43-5.22c0.64-1.05,1.26-2.1,1.88-3.16c0.53-0.92,1.03-1.85,1.53-2.78c0.58-1.16,1.18-2.32,1.7-3.51
			c0.57-1.3,1.11-2.61,1.61-3.93c0.26-0.74,0.51-1.48,0.72-2.23c0.23-0.83,0.44-1.65,0.64-2.49c0.29-1.52,0.51-3.05,0.65-4.6
			c0.11-1.47,0.21-2.95,0.18-4.42c-0.01-0.23-0.03-0.46-0.06-0.69c-0.46-0.07-0.92-0.17-1.36-0.35c-0.84-0.34-1.59-0.86-2.11-1.61
			c-0.22-0.32-0.36-0.67-0.43-1.04c-0.04-0.22-0.06-0.46-0.03-0.7c-0.01-0.01-0.02-0.02-0.03-0.04c-0.27-0.3-0.49-0.64-0.69-0.98
			c-0.44-0.76-0.72-1.61-0.65-2.5c0.06-0.76,0.38-1.51,0.94-2.03c0.62-0.58,1.41-0.95,2.26-1.07c1.34-0.19,2.59,0.46,3.64,1.23
			c0.74,0.55,1.43,1.16,2.03,1.86c0.69,0.79,1.2,1.68,1.44,2.7c0.22,0.9,0.09,1.96-0.37,2.77c-0.34,0.6-0.83,1.14-1.45,1.46
			c0.01,0.06,0.01,0.12,0.02,0.18c0.08,0.83,0.07,1.67,0.04,2.5c-0.03,0.83-0.08,1.66-0.14,2.49c-0.13,1.69-0.33,3.36-0.65,5.02
			c-0.32,1.66-0.77,3.3-1.32,4.89c-1.14,3.3-2.61,6.49-4.26,9.56c-1.65,3.05-3.44,6.04-5.4,8.91c-0.48,0.71-0.95,1.43-1.47,2.11
			c-0.35,0.46-0.69,0.91-1.04,1.37c-0.22,0.29-0.42,0.59-0.65,0.86c-0.64,0.76-1.28,1.52-1.91,2.28c-0.57,0.68-1.19,1.32-1.78,1.97
			c-1.15,1.27-2.35,2.5-3.57,3.7c-0.29,0.29-0.58,0.57-0.88,0.86c-0.34,0.33-0.71,0.64-1.06,0.95c-0.67,0.6-1.37,1.16-2.07,1.73
			c-0.24,0.19-0.49,0.37-0.73,0.56c-0.24,0.55-0.78,0.97-1.39,0.97C565.05,60.96,565.02,60.96,564.98,60.96z M565.72,57.92
			c-0.03-0.01-0.05-0.03-0.08-0.04c-0.06-0.02-0.13-0.05-0.19-0.07c-0.03,0-0.06-0.01-0.09-0.01
			C565.49,57.83,565.61,57.87,565.72,57.92z M588.05,3.46c0.02-0.02,0.04-0.04,0.06-0.06c0.04-0.04,0.09-0.08,0.14-0.11
			c-0.03,0.01-0.07,0.03-0.1,0.04c-0.02,0.01-0.03,0.02-0.05,0.03c0,0-0.01,0.01-0.01,0.01c-0.01,0.01-0.02,0.02-0.03,0.03
			c0,0,0,0,0,0.01c0,0.01,0,0.02,0,0.03C588.05,3.43,588.05,3.44,588.05,3.46z"/>
	</g>
	<g>
		<path class="st0" d="M64.76,65.7c-0.46-0.02-0.92-0.03-1.38-0.05c-0.43-0.02-0.86-0.09-1.29-0.14c-0.45-0.05-0.91-0.1-1.36-0.15
			c-0.42-0.04-0.84-0.15-1.25-0.22c-0.41-0.07-0.83-0.15-1.24-0.22c-1.21-0.21-2.41-0.56-3.58-0.94c-2.2-0.71-4.33-1.68-6.32-2.87
			c-0.99-0.59-1.94-1.28-2.86-1.98c-0.98-0.74-1.9-1.56-2.78-2.41c-1.75-1.68-3.23-3.63-4.49-5.7c-1.26-2.05-2.17-4.29-2.71-6.63
			c-0.53-2.29-0.55-4.66-0.24-6.98c0.31-2.35,1.09-4.61,2.1-6.74c2.04-4.28,5.07-8.11,8.68-11.18c1.49-1.26,3.1-2.43,4.82-3.36
			c0.8-0.44,1.59-0.9,2.42-1.28c0.82-0.37,1.62-0.76,2.46-1.06c0.53-0.19,1.06-0.39,1.58-0.58c0.33-0.12,0.68-0.21,1.02-0.31
			c0.52-0.15,1.03-0.3,1.55-0.45c0.36-0.1,0.72-0.17,1.09-0.26c0.43-0.1,0.86-0.2,1.29-0.3c0.48-0.11,0.96-0.18,1.44-0.27
			c0.93-0.17,1.86-0.3,2.79-0.43c0.31-0.04,0.61-0.08,0.92-0.1c0.53-0.04,1.06-0.11,1.59-0.12c0.45-0.01,0.9-0.01,1.35-0.02
			c0.43-0.01,0.86,0.02,1.29,0.04c0.74,0.03,1.48,0.1,2.21,0.23c0.47,0.08,0.92,0.2,1.38,0.34c0.18-0.04,0.37-0.04,0.56,0
			c3.28,0.71,6.56,1.49,9.71,2.65c1.56,0.58,3.06,1.29,4.52,2.09c0.74,0.41,1.47,0.84,2.16,1.32c0.74,0.52,1.45,1.06,2.14,1.64
			c1.38,1.15,2.58,2.51,3.71,3.9c1.02,1.27,1.92,2.67,2.67,4.11c0.42,0.81,0.82,1.63,1.16,2.48c0.34,0.86,0.62,1.73,0.86,2.62
			c0.22,0.82,0.36,1.65,0.44,2.49c0.05,0.54,0.05,1.08,0.07,1.61c0.02,0.45-0.01,0.92-0.05,1.38c-0.04,0.4-0.05,0.81-0.11,1.21
			c-0.07,0.46-0.12,0.92-0.22,1.37c-0.09,0.4-0.15,0.81-0.27,1.2c-0.14,0.44-0.25,0.9-0.42,1.33c-0.15,0.39-0.28,0.79-0.45,1.16
			c-0.2,0.44-0.39,0.89-0.62,1.32c-0.21,0.4-0.42,0.8-0.62,1.2c-0.42,0.8-0.92,1.55-1.41,2.3c-0.44,0.68-0.93,1.34-1.46,1.95
			c-0.3,0.35-0.59,0.72-0.91,1.05c-0.36,0.37-0.72,0.75-1.08,1.12c-0.54,0.56-1.13,1.09-1.71,1.6c-0.74,0.65-1.49,1.28-2.25,1.9
			c-0.64,0.52-1.32,1-1.99,1.49c-0.32,0.23-0.66,0.43-0.99,0.64c-0.34,0.22-0.67,0.45-1.02,0.65c-0.78,0.46-1.56,0.92-2.37,1.33
			c-0.44,0.23-0.88,0.45-1.33,0.68c-0.4,0.2-0.82,0.37-1.23,0.55c-0.39,0.17-0.78,0.35-1.17,0.52c-0.41,0.18-0.85,0.32-1.27,0.48
			c-0.38,0.14-0.75,0.29-1.13,0.43c-0.44,0.17-0.9,0.28-1.35,0.42c-0.4,0.13-0.8,0.25-1.19,0.38c-0.44,0.14-0.9,0.24-1.35,0.35
			c-0.47,0.12-0.94,0.24-1.41,0.35c-0.37,0.09-0.75,0.14-1.12,0.21c-0.5,0.09-1,0.18-1.5,0.28c-0.39,0.07-0.8,0.1-1.19,0.14
			c-0.5,0.05-1.01,0.11-1.51,0.16c-0.39,0.04-0.79,0.03-1.18,0.04c-0.49,0.02-0.99,0.03-1.48,0.05c-0.05,0-0.1,0-0.16,0
			C65.41,65.74,65.08,65.71,64.76,65.7z M65.92,62.53c0.41,0.01,0.82-0.03,1.23-0.04c0.35-0.01,0.7-0.02,1.05-0.04
			c0.82-0.09,1.63-0.18,2.45-0.26c0.81-0.15,1.63-0.3,2.45-0.45c0.44-0.08,0.87-0.22,1.31-0.33c0.43-0.11,0.86-0.22,1.29-0.32
			c0.62-0.2,1.25-0.39,1.87-0.59c0.5-0.16,0.98-0.34,1.47-0.53c0.53-0.2,1.07-0.39,1.59-0.62c0.62-0.28,1.24-0.55,1.85-0.83
			c0.65-0.33,1.3-0.66,1.95-0.99c0.27-0.14,0.53-0.31,0.79-0.46c0.33-0.19,0.66-0.38,1-0.58c0.77-0.5,1.54-1,2.28-1.54
			c0.38-0.28,0.76-0.54,1.12-0.84c0.42-0.34,0.83-0.68,1.25-1.01c0.6-0.53,1.2-1.05,1.78-1.6c0.62-0.59,1.22-1.2,1.81-1.82
			c0.31-0.37,0.63-0.73,0.94-1.1c0.15-0.18,0.28-0.38,0.42-0.56c0.15-0.2,0.3-0.4,0.45-0.61c0.36-0.55,0.72-1.1,1.05-1.67
			c0.34-0.59,0.66-1.19,0.98-1.8c0.17-0.37,0.34-0.75,0.51-1.12c0.15-0.33,0.27-0.67,0.39-1.01c0.11-0.36,0.22-0.73,0.33-1.09
			c0.11-0.37,0.17-0.77,0.26-1.14c-0.01,0.05-0.02,0.11-0.04,0.16c0.06-0.4,0.12-0.8,0.18-1.2c0.06-0.39,0.07-0.79,0.1-1.19
			c-0.01,0.07-0.01,0.14-0.02,0.2c0.01-0.39,0.02-0.78,0.03-1.17c0.01-0.31-0.01-0.62-0.03-0.93c-0.03-0.42-0.08-0.84-0.14-1.26
			c-0.11-0.6-0.27-1.19-0.43-1.78c-0.11-0.32-0.21-0.64-0.32-0.95c-0.11-0.34-0.27-0.67-0.4-1.01c-0.29-0.63-0.6-1.25-0.92-1.86
			c-0.31-0.59-0.67-1.16-1.02-1.73c-0.59-0.85-1.19-1.67-1.84-2.47c-0.64-0.72-1.3-1.42-1.99-2.09c-0.43-0.39-0.87-0.77-1.32-1.14
			c-0.43-0.36-0.9-0.68-1.36-1c-0.75-0.48-1.51-0.93-2.29-1.36c-1.34-0.68-2.71-1.29-4.12-1.81c-2.34-0.79-4.73-1.42-7.13-1.97
			c-0.47,0.2-1.02,0.17-1.48-0.09c-0.08-0.04-0.17-0.07-0.26-0.1c-0.48-0.15-0.95-0.3-1.44-0.42c-0.47-0.09-0.94-0.16-1.41-0.2
			c-1.03-0.08-2.06-0.07-3.09-0.05c-0.28,0.02-0.57,0.05-0.85,0.07c-0.32,0.02-0.64,0.03-0.95,0.08c-0.71,0.1-1.42,0.2-2.12,0.3
			c-0.57,0.11-1.14,0.21-1.71,0.32c-0.52,0.1-1.03,0.22-1.55,0.34c-0.51,0.12-1.02,0.23-1.52,0.37c-0.58,0.17-1.16,0.34-1.74,0.51
			c-0.75,0.27-1.49,0.55-2.24,0.82c-0.35,0.13-0.7,0.31-1.04,0.47c-0.34,0.15-0.68,0.3-1.02,0.46c-0.96,0.52-1.92,1.03-2.85,1.6
			c-1.14,0.72-2.22,1.51-3.26,2.37c-1.02,0.87-1.99,1.8-2.9,2.79c-0.97,1.08-1.87,2.21-2.71,3.4c-0.71,1.05-1.37,2.13-1.96,3.25
			c-0.49,0.96-0.92,1.94-1.3,2.95c-0.27,0.76-0.49,1.52-0.67,2.31c-0.16,0.79-0.28,1.58-0.35,2.38c-0.05,0.69-0.07,1.38-0.05,2.07
			c0.04,0.64,0.1,1.28,0.2,1.91c0.13,0.72,0.31,1.43,0.51,2.14c0.25,0.79,0.55,1.56,0.89,2.31c0.41,0.87,0.88,1.7,1.39,2.52
			c0.62,0.96,1.29,1.87,2.01,2.75c0.72,0.84,1.47,1.63,2.28,2.39c1.03,0.93,2.12,1.78,3.25,2.58c0.89,0.61,1.81,1.15,2.77,1.65
			c1.12,0.56,2.27,1.05,3.45,1.48c1.15,0.4,2.32,0.72,3.51,0.99c0.88,0.19,1.77,0.32,2.65,0.48c0.36,0.06,0.72,0.08,1.08,0.12
			c0.41,0.04,0.82,0.09,1.23,0.13C64.3,62.48,65.11,62.51,65.92,62.53z"/>
		<path class="st0" d="M64.09,35.04c-0.85-0.02-1.61-0.77-1.56-1.64c0.1-2,0.3-3.99,0.51-5.97c0.1-0.99,0.23-1.98,0.37-2.96
			c0.07-0.51,0.16-1.01,0.25-1.51c0.04-0.22,0.09-0.44,0.14-0.66c0.09-0.43,0.23-0.92,0.58-1.21c0.5-0.42,1.12-0.57,1.74-0.31
			c0.19,0.08,0.38,0.21,0.52,0.37c0.46,0.48,0.56,1.2,0.29,1.78c0,0.01-0.01,0.03-0.01,0.04c-0.27,1.32-0.45,2.66-0.61,3.99
			c-0.16,1.34-0.29,2.69-0.41,4.04c-0.07,0.83-0.13,1.65-0.17,2.48c-0.04,0.86-0.73,1.56-1.6,1.56
			C64.11,35.04,64.1,35.04,64.09,35.04z"/>
		<path class="st0" d="M74.14,32.33c-0.42-0.01-0.83-0.19-1.12-0.5c-0.3-0.32-0.43-0.71-0.44-1.14c-0.05-1.81-0.04-3.63-0.02-5.44
			c0.01-0.91,0.02-1.82,0.05-2.74c0.02-0.49,0.04-0.97,0.05-1.46c0.02-0.42,0.02-0.84,0.06-1.25c0.09-0.87,0.99-1.47,1.82-1.34
			c0.42,0.06,0.81,0.3,1.06,0.64c0.23,0.32,0.32,0.69,0.29,1.08c0-0.03,0.01-0.07,0.01-0.1c-0.06,0.86-0.07,1.73-0.1,2.6
			c-0.03,0.92-0.04,1.85-0.05,2.77c-0.02,1.77-0.03,3.54,0.02,5.31c0.02,0.86-0.78,1.56-1.6,1.56
			C74.16,32.33,74.15,32.33,74.14,32.33z"/>
		<path class="st0" d="M66.19,49.07c-0.97-0.09-1.93-0.35-2.84-0.73c-0.7-0.29-1.34-0.74-1.94-1.2c-0.91-0.69-1.75-1.43-2.53-2.26
			c-0.76-0.81-1.36-1.77-1.91-2.73c-0.54-0.94-0.97-1.94-1.28-2.97c-0.29-0.97-0.57-2.23,0.24-3.03c0.62-0.62,1.67-0.57,2.26,0.05
			c0.37,0.38,0.5,0.9,0.41,1.38c0,0.02,0,0.03,0,0.05c0,0.02,0,0.04,0.01,0.06c0.05,0.22,0.11,0.44,0.17,0.66
			c0.14,0.41,0.29,0.8,0.46,1.2c0.27,0.58,0.58,1.14,0.91,1.69c0.26,0.41,0.54,0.8,0.84,1.18c0.3,0.34,0.61,0.67,0.93,0.99
			c0.64,0.57,1.3,1.1,2,1.59c0.18,0.11,0.35,0.22,0.54,0.32c0.17,0.08,0.35,0.15,0.53,0.22c0.25,0.08,0.5,0.15,0.76,0.21
			c0.35,0.07,0.7,0.12,1.06,0.16c0.34,0.02,0.69,0.03,1.03,0.02c0.47-0.03,0.94-0.08,1.4-0.15c0.4-0.08,0.79-0.17,1.17-0.28
			c0.4-0.13,0.78-0.28,1.17-0.44c0.43-0.21,0.85-0.43,1.27-0.68c0.56-0.37,1.08-0.77,1.6-1.2c0.43-0.4,0.85-0.82,1.26-1.24
			c0.51-0.6,1-1.21,1.47-1.85c0.32-0.47,0.62-0.94,0.91-1.44c0.29-0.49,0.55-1,0.81-1.51c0.49-0.97,0.94-1.95,1.32-2.97
			c0.05-0.13,0.09-0.26,0.14-0.4c0.28-0.83,1.12-1.34,1.98-1.1c0.81,0.23,1.37,1.15,1.1,1.98c-0.54,1.6-1.25,3.12-2.04,4.61
			c-0.8,1.5-1.71,2.94-2.82,4.23c-0.31,0.36-0.63,0.71-0.96,1.06c-0.31,0.33-0.64,0.63-0.97,0.94c-0.31,0.29-0.65,0.54-0.98,0.81
			c-0.39,0.32-0.84,0.6-1.27,0.87c-0.53,0.32-1.07,0.61-1.64,0.85c-0.98,0.43-2,0.74-3.05,0.92c-0.74,0.12-1.47,0.18-2.21,0.18
			C67.06,49.13,66.63,49.11,66.19,49.07z"/>
		<path class="st0" d="M66.68,127.75c-3.48-0.15-6.97-0.34-10.43-0.7c-1.77-0.18-3.53-0.41-5.29-0.74c-0.77-0.15-1.56-0.31-2.29-0.6
			c-0.39-0.16-0.83-0.33-1.15-0.61c-0.37-0.32-0.67-0.66-0.88-1.12c-0.22-0.5-0.28-1.05-0.3-1.59c-0.02-0.46-0.03-0.91-0.01-1.37
			c0.07-1.61,0.21-3.22,0.32-4.84c0.11-1.69,0.22-3.39,0.33-5.08c0.22-3.35,0.49-6.7,0.74-10.04c0.26-3.43,0.51-6.86,0.75-10.29
			c0.25-3.5,0.5-7.01,0.8-10.51c0.31-3.67,0.65-7.34,0.98-11.01c0.13-1.41,0.26-2.82,0.39-4.24c0.06-0.68,0.13-1.35,0.19-2.03
			c0.03-0.35,0.07-0.7,0.1-1.05c0.03-0.29,0.04-0.6,0.15-0.87c0.3-0.73,1.16-1.13,1.92-0.92c0.79,0.23,1.25,1.01,1.13,1.8
			c0,0,0-0.01,0-0.01c-0.09,0.53-0.1,1.08-0.15,1.61c-0.06,0.7-0.13,1.4-0.2,2.11c-0.12,1.32-0.25,2.64-0.37,3.95
			c-0.26,2.82-0.51,5.64-0.76,8.46c-0.28,3.34-0.56,6.69-0.8,10.04c-0.25,3.62-0.51,7.23-0.78,10.85c-0.25,3.35-0.53,6.7-0.76,10.05
			c-0.24,3.35-0.44,6.71-0.67,10.07c-0.06,0.95-0.15,1.9-0.15,2.85c0.01,0.23,0.02,0.46,0.05,0.69c0.08,0.04,0.17,0.08,0.26,0.11
			c0.46,0.15,0.92,0.27,1.39,0.38c0.93,0.18,1.86,0.35,2.8,0.47c1.12,0.14,2.23,0.27,3.35,0.38c2.8,0.23,5.61,0.41,8.42,0.56
			c2.78,0.15,5.57,0.13,8.35,0.03c2.31-0.11,4.63-0.24,6.93-0.48c2.3-0.24,4.58-0.55,6.86-0.94c-0.03,0.01-0.07,0.01-0.1,0.02
			c1.06-0.18,2.14-0.33,3.17-0.62c0.04-0.01,0.08-0.03,0.12-0.04c0.03-0.02,0.06-0.03,0.09-0.05c0.02-0.02,0.04-0.04,0.05-0.05
			c0.01-0.01,0.02-0.03,0.03-0.04c0,0.01-0.01,0.01-0.01,0.02c0,0,0,0,0.01-0.01c0.03-0.05,0.06-0.1,0.09-0.15
			c0.06-0.14,0.12-0.28,0.18-0.42c0.07-0.24,0.14-0.47,0.19-0.71c0.13-0.64,0.2-1.28,0.27-1.94c0.09-1.56,0.14-3.13,0.12-4.7
			c-0.02-1.73-0.07-3.45-0.14-5.17c0,0.07,0.01,0.14,0.01,0.21c-0.3-6.87-0.73-13.74-1.57-20.56c-0.44-3.55-0.94-7.1-1.43-10.64
			c-0.47-3.38-0.89-6.77-1.27-10.17c-0.39-3.5-0.75-7.01-1.2-10.51c-0.11-0.87,0.57-1.67,1.42-1.76c0.88-0.09,1.65,0.56,1.76,1.42
			c0.41,3.18,0.74,6.37,1.09,9.56c0.37,3.4,0.78,6.79,1.25,10.18c0.47,3.4,0.97,6.79,1.39,10.2c0.43,3.45,0.79,6.9,1.06,10.36
			c0.27,3.51,0.48,7.03,0.64,10.55c0.15,3.49,0.32,7.01,0.11,10.51c-0.07,1.1-0.16,2.21-0.42,3.29c-0.22,0.93-0.54,1.84-1.17,2.58
			c-0.25,0.29-0.56,0.57-0.9,0.74c-0.37,0.19-0.74,0.32-1.13,0.44c-0.34,0.1-0.7,0.16-1.05,0.23c-0.41,0.08-0.82,0.15-1.22,0.23
			c-0.78,0.14-1.56,0.27-2.34,0.39c-3.34,0.52-6.69,0.88-10.06,1.08c-2.27,0.14-4.55,0.22-6.82,0.22
			C68.98,127.82,67.83,127.8,66.68,127.75z"/>
		<path class="st0" d="M48.75,166.72c-0.74-0.29-1.38-0.8-1.92-1.38c-0.64-0.68-1.12-1.55-1.38-2.45c-0.51-1.79-0.23-3.91,1.25-5.17
			c0.88-0.75,2.08-0.84,3.19-0.85c0.68-0.01,1.36,0.13,2.02,0.27c0.66,0.14,1.32,0.32,1.96,0.56c1.14,0.42,2.18,1.05,3.31,1.49
			c0.01,0,0.02,0.01,0.03,0.01c0.05-0.29,0.08-0.58,0.11-0.87c0.26-3.21,0.49-6.41,0.74-9.62c0.27-3.44,0.57-6.88,0.9-10.32
			c0.36-3.75,0.69-7.51,1.14-11.25c0.1-0.87,0.98-1.47,1.82-1.34c0.88,0.13,1.44,0.96,1.34,1.82c-0.33,2.77-0.58,5.55-0.85,8.33
			c-0.27,2.83-0.54,5.66-0.79,8.5c0-0.02,0-0.05,0.01-0.07c0,0.04-0.01,0.08-0.01,0.12c0,0.03-0.01,0.06-0.01,0.09
			c0-0.02,0-0.04,0.01-0.07c-0.28,3.33-0.53,6.66-0.78,9.99c-0.06,0.8-0.12,1.6-0.18,2.39c-0.06,0.84-0.11,1.69-0.22,2.53
			c-0.04,0.32-0.1,0.64-0.21,0.95c-0.16,0.44-0.39,0.82-0.67,1.19c-0.13,0.17-0.27,0.31-0.43,0.44c0.02,0.31-0.05,0.64-0.22,0.92
			c-0.65,1.07-1.47,2.01-2.5,2.73c-1.34,0.95-2.94,1.39-4.56,1.49c-0.17,0.01-0.35,0.02-0.52,0.02
			C50.43,167.18,49.58,167.04,48.75,166.72z M51.51,163.98c0.31-0.02,0.61-0.05,0.92-0.09c0.28-0.05,0.55-0.12,0.82-0.19
			c0.18-0.06,0.35-0.13,0.52-0.2c0.19-0.1,0.38-0.2,0.57-0.31c0.19-0.13,0.38-0.26,0.56-0.41c0.16-0.14,0.32-0.29,0.46-0.45
			c0.09-0.1,0.17-0.2,0.26-0.31c-0.26-0.11-0.52-0.23-0.77-0.35c-0.75-0.35-1.48-0.73-2.26-1.03c-0.43-0.13-0.86-0.25-1.3-0.36
			c-0.34-0.07-0.68-0.14-1.03-0.18c-0.22-0.01-0.43-0.02-0.65-0.02c-0.21,0.01-0.41,0.03-0.61,0.05c-0.09,0.02-0.17,0.03-0.26,0.05
			c-0.01,0.01-0.01,0.01-0.02,0.02c-0.02,0.03-0.05,0.06-0.07,0.09c-0.03,0.05-0.06,0.1-0.09,0.15c-0.02,0.04-0.04,0.08-0.05,0.12
			c-0.02,0.06-0.04,0.13-0.06,0.19c-0.01,0.08-0.03,0.16-0.04,0.24c-0.01,0.1-0.01,0.19-0.01,0.29c0.01,0.16,0.03,0.31,0.05,0.47
			c0.02,0.09,0.04,0.18,0.07,0.27c0.03,0.1,0.07,0.2,0.11,0.3c0.07,0.14,0.13,0.27,0.21,0.4c0.08,0.12,0.16,0.23,0.25,0.35
			c0.09,0.1,0.18,0.2,0.27,0.29c0.09,0.08,0.18,0.15,0.28,0.22c0.05,0.03,0.11,0.07,0.16,0.1c0.1,0.05,0.2,0.09,0.3,0.13
			c0.11,0.03,0.22,0.06,0.33,0.09c0.13,0.02,0.25,0.04,0.38,0.06C51.05,163.98,51.28,163.98,51.51,163.98z"/>
		<path class="st0" d="M85.77,165.49c-0.86-0.19-1.67-0.46-2.45-0.87c-1.46-0.76-2.6-2-3.4-3.43c-0.19-0.34-0.23-0.72-0.15-1.08
			c-0.34-0.36-0.53-0.84-0.6-1.32c-0.13-0.92-0.12-1.86-0.15-2.79c-0.03-0.79-0.05-1.58-0.07-2.37c-0.1-3.41-0.17-6.83-0.24-10.24
			c-0.07-3.85-0.14-7.7-0.28-11.55c-0.05-1.13-0.14-2.27-0.16-3.4c-0.01-0.87,0.79-1.58,1.64-1.56c0.9,0.02,1.55,0.77,1.56,1.64
			c0,0.01,0,0.03,0,0.04c0.08,1.62,0.17,3.25,0.22,4.87c0.06,1.84,0.1,3.69,0.14,5.53c0.07,3.34,0.12,6.68,0.2,10.02
			c0.06,2.73,0.13,5.45,0.23,8.18c0.46-0.25,0.92-0.51,1.39-0.74c0.71-0.34,1.43-0.61,2.2-0.78c0.91-0.2,1.87-0.2,2.79-0.08
			c0.26,0.03,0.52,0.07,0.78,0.1c0.48,0.06,0.93,0.2,1.38,0.36c0.88,0.32,1.68,0.9,2.32,1.57c0.52,0.54,0.94,1.24,1.12,1.97
			c0.19,0.78,0.18,1.54-0.04,2.31c-0.43,1.5-1.76,2.74-3.18,3.32c-0.49,0.2-1.01,0.36-1.53,0.43c-0.47,0.07-0.93,0.1-1.41,0.11
			c-0.08,0-0.16,0-0.24,0C87.15,165.72,86.44,165.63,85.77,165.49z M88.39,162.51c0.22-0.02,0.43-0.04,0.64-0.07
			c0.18-0.04,0.35-0.09,0.53-0.14c0.09-0.03,0.17-0.06,0.26-0.1c0.1-0.05,0.21-0.1,0.31-0.16c0.13-0.09,0.26-0.19,0.39-0.29
			c0.09-0.08,0.17-0.16,0.25-0.24c0.06-0.08,0.12-0.15,0.18-0.23c0.03-0.05,0.06-0.1,0.09-0.15c0.02-0.04,0.04-0.09,0.06-0.13
			c0.02-0.07,0.04-0.15,0.06-0.22c0-0.03,0.01-0.06,0.01-0.09c0-0.04,0-0.07,0-0.11c0-0.04-0.01-0.08-0.01-0.12
			c-0.01-0.05-0.02-0.1-0.04-0.15c-0.01-0.03-0.02-0.06-0.03-0.09c-0.04-0.08-0.08-0.15-0.12-0.23c-0.03-0.04-0.06-0.09-0.09-0.13
			c-0.08-0.09-0.17-0.18-0.26-0.27c-0.1-0.09-0.21-0.17-0.31-0.25c-0.13-0.08-0.26-0.16-0.39-0.23c-0.15-0.07-0.31-0.14-0.46-0.2
			c-0.06-0.02-0.11-0.03-0.17-0.05c-0.44-0.08-0.89-0.14-1.33-0.18c-0.25-0.01-0.5-0.02-0.75-0.01c-0.18,0.01-0.36,0.03-0.54,0.05
			c-0.21,0.04-0.41,0.09-0.62,0.14c-0.28,0.1-0.56,0.2-0.83,0.32c-0.7,0.35-1.39,0.73-2.08,1.1c0.07,0.1,0.14,0.19,0.21,0.28
			c0.18,0.21,0.38,0.41,0.58,0.61c0.11,0.09,0.22,0.18,0.33,0.27c0.23,0.15,0.47,0.29,0.72,0.42c0.19,0.08,0.38,0.16,0.57,0.24
			c0.22,0.07,0.43,0.14,0.65,0.19c0.42,0.08,0.83,0.15,1.26,0.19C87.77,162.51,88.08,162.52,88.39,162.51z"/>
		<path class="st0" d="M50.15,71.43c-0.19-0.17-0.34-0.36-0.44-0.57c0.01,0.01,0.01,0.02,0.02,0.03c-0.04-0.07-0.07-0.13-0.11-0.19
			c-1.9-2.87-3.92-5.64-5.98-8.39c-2.14-2.87-4.27-5.74-6.45-8.57c-2.05-2.66-4.13-5.3-6.2-7.95c-2.08-2.66-4.16-5.32-6.25-7.97
			c-0.67-0.86-1.35-1.71-2.02-2.57c-0.62-0.8-1.25-1.61-1.82-2.45c-0.55-0.81-1.07-1.63-1.61-2.43c-0.5-0.74-0.98-1.5-1.53-2.19
			c-0.14-0.16-0.29-0.31-0.44-0.46c-0.03-0.03-0.07-0.06-0.11-0.08c-0.15-0.09-0.3-0.18-0.45-0.26c-0.62-0.3-1.25-0.55-1.89-0.79
			c-1.75-0.6-3.53-1.11-5.32-1.59c-1.71-0.46-3.42-0.88-5.14-1.26c0.01,0,0.02,0.01,0.04,0.01c-0.52-0.11-1.05-0.22-1.57-0.32
			c-0.86-0.16-1.48-0.94-1.34-1.82c0.13-0.84,0.97-1.5,1.82-1.34c1.66,0.31,3.3,0.7,4.94,1.1c1.55,0.39,3.11,0.79,4.64,1.24
			c0.87,0.26,1.73,0.52,2.59,0.82c0.44,0.15,0.88,0.32,1.32,0.49c0.78,0.3,1.6,0.64,2.27,1.15c0.73,0.55,1.27,1.26,1.79,2.01
			c0.4,0.57,0.79,1.14,1.17,1.71c0.79,1.18,1.55,2.37,2.4,3.51c0.96,1.27,1.95,2.52,2.94,3.77c2.09,2.66,4.17,5.32,6.25,7.98
			c2.06,2.63,4.13,5.25,6.16,7.9c2.16,2.82,4.28,5.67,6.4,8.52c1.12,1.5,2.22,3,3.31,4.51c0.58,0.81,1.15,1.63,1.71,2.46
			c0.24,0.35,0.48,0.7,0.72,1.06c0.24,0.36,0.51,0.72,0.67,1.13c-0.01-0.01-0.01-0.02-0.02-0.02c0.04,0.09,0.07,0.19,0.09,0.29
			c0-0.02,0-0.03-0.01-0.05c0.01,0.06,0.03,0.12,0.03,0.19c0.08,0.64-0.27,1.28-0.83,1.58c-0.23,0.13-0.5,0.19-0.77,0.19
			C50.78,71.78,50.42,71.67,50.15,71.43z"/>
		<path class="st0" d="M17.41,25.24c-1.55-1.69-3.18-3.31-4.85-4.89c0.05,0.05,0.11,0.1,0.16,0.15c-0.81-0.74-1.63-1.49-2.49-2.16
			C9.7,18,9.38,17.37,9.48,16.72c0.13-0.87,0.96-1.47,1.82-1.34c0.52,0.07,0.9,0.42,1.28,0.75c0.36,0.3,0.71,0.61,1.06,0.91
			c0.73,0.63,1.44,1.29,2.13,1.96c1.35,1.31,2.67,2.64,3.94,4.02c0.59,0.64,0.59,1.65-0.05,2.26c-0.3,0.29-0.71,0.44-1.11,0.44
			C18.13,25.73,17.71,25.57,17.41,25.24z"/>
		<path class="st0" d="M20.02,25.81c-0.88-0.02-1.58-0.77-1.56-1.64c0.02-1.81,0.05-3.63,0.09-5.44c0.02-0.9,0.03-1.8,0.05-2.7
			c0.01-0.41,0.02-0.83,0.03-1.24c0.01-0.51,0.02-1.03,0.37-1.44c0.56-0.67,1.56-0.81,2.25-0.26c0.43,0.35,0.65,0.91,0.59,1.44
			c-0.04,0.7-0.03,1.41-0.05,2.11c-0.02,0.87-0.03,1.74-0.05,2.61c-0.03,1.66-0.05,3.33-0.08,4.99c-0.01,0.86-0.75,1.56-1.6,1.56
			C20.04,25.81,20.03,25.81,20.02,25.81z"/>
		<path class="st0" d="M0.01,29.45c-0.09-0.85,0.55-1.69,1.42-1.76c2.41-0.18,4.8-0.47,7.2-0.77c2.47-0.31,4.94-0.63,7.4-0.99
			c0.87-0.15,1.74-0.29,2.59-0.52c0.29-0.09,0.57-0.19,0.86-0.31c0.19-0.09,0.37-0.18,0.55-0.28c0.12-0.08,0.23-0.16,0.35-0.25
			c0.06-0.06,0.13-0.12,0.19-0.18c0.05-0.05,0.09-0.11,0.13-0.17c0.44-0.66,0.78-1.39,1.14-2.1c0.64-1.25,1.26-2.5,1.87-3.76
			c0.35-0.73,0.7-1.45,1.04-2.18c0.17-0.37,0.33-0.74,0.49-1.12c0.11-0.27,0.2-0.56,0.35-0.82c0.43-0.76,1.46-0.99,2.2-0.55
			c0.71,0.43,0.95,1.32,0.62,2.05c0.01-0.01,0.01-0.03,0.02-0.04c-0.13,0.26-0.22,0.55-0.32,0.82c-0.16,0.4-0.35,0.79-0.52,1.18
			c-0.36,0.78-0.74,1.56-1.12,2.33c-0.72,1.48-1.46,2.95-2.22,4.42c-0.51,0.99-1.02,1.96-1.92,2.67c-1.43,1.12-3.22,1.54-4.98,1.84
			c-1.66,0.28-3.32,0.5-4.99,0.72c-3.51,0.46-7.04,0.93-10.57,1.2c-0.04,0-0.09,0-0.13,0C0.82,30.88,0.1,30.29,0.01,29.45z"/>
		<path class="st0" d="M90.07,69.47c-0.82-0.35-1.16-1.3-0.83-2.11c0.13-0.32,0.36-0.61,0.53-0.9c0.26-0.43,0.52-0.86,0.79-1.29
			c0.41-0.66,0.84-1.32,1.28-1.96c1.02-1.49,2.06-2.97,3.09-4.45c2.06-2.93,4.12-5.84,6.19-8.76c2.09-2.94,4.16-5.89,6.23-8.84
			c-0.02,0.02-0.03,0.05-0.05,0.07c0.02-0.03,0.04-0.06,0.06-0.08c0.02-0.03,0.04-0.06,0.06-0.09c-0.02,0.02-0.03,0.05-0.05,0.07
			c3.88-5.66,7.71-11.35,11.61-16.99c1.21-1.75,2.43-3.51,3.68-5.24c0.51-0.71,1.59-0.78,2.25-0.25c0.33,0.27,0.55,0.66,0.59,1.09
			c0.05,0.43-0.09,0.82-0.34,1.16c-1.01,1.39-1.99,2.8-2.97,4.2c0.01-0.02,0.02-0.04,0.04-0.05c-0.04,0.05-0.07,0.1-0.11,0.16
			c0,0.01-0.01,0.01-0.01,0.02c0,0,0-0.01,0.01-0.01c-3.88,5.6-7.67,11.27-11.54,16.88c-3.97,5.76-8.07,11.43-12.09,17.15
			c-0.97,1.38-1.94,2.76-2.91,4.15c-0.64,0.93-1.28,1.87-1.9,2.82c-0.54,0.83-1.05,1.69-1.56,2.54c-0.27,0.54-0.85,0.85-1.43,0.85
			C90.48,69.59,90.27,69.55,90.07,69.47z"/>
		<path class="st0" d="M119.01,28.33c-0.92-0.35-1.55-1.34-1.64-2.3c-0.09-0.89-0.02-1.78,0-2.67c0.02-0.77,0.04-1.54,0.07-2.32
			c0.03-1.05,0.06-2.1,0.08-3.14c0.01-0.5,0.02-0.99,0.03-1.49c0.01-0.44,0-0.89,0.07-1.33c0.14-0.86,0.96-1.47,1.82-1.34
			c0.86,0.13,1.48,0.96,1.34,1.82c-0.05,0.75-0.04,1.51-0.06,2.26c-0.02,0.92-0.04,1.84-0.06,2.75c-0.02,0.82-0.05,1.64-0.07,2.46
			c-0.02,0.8-0.06,1.6-0.05,2.39c0.02,0,0.03,0,0.05,0.01c0.4,0.02,0.8,0.02,1.21,0c1.97-0.15,3.92-0.45,5.87-0.74
			c1.9-0.29,3.8-0.58,5.7-0.88c0.86-0.14,1.67,0.59,1.76,1.42c0.04,0.42-0.08,0.84-0.34,1.17c-0.28,0.35-0.65,0.53-1.08,0.6
			c-3.23,0.52-6.47,1.05-9.72,1.44c-0.86,0.1-1.71,0.17-2.57,0.21c-0.11,0-0.23,0.01-0.34,0.01
			C120.35,28.66,119.66,28.57,119.01,28.33z"/>
		<path class="st0" d="M130.96,33.07c-3.18-0.65-6.37-1.29-9.57-1.89c-0.81-0.15-1.63-0.3-2.44-0.48c-1.24-0.28-2.61-0.54-3.55-1.46
			c-0.68-0.67-1.04-1.59-1.44-2.45c-0.36-0.77-0.71-1.55-1.07-2.32c-0.44-0.96-0.89-1.91-1.34-2.87c-0.45-0.95-0.87-1.91-1.35-2.85
			c-0.4-0.78-0.13-1.75,0.65-2.17c0.75-0.41,1.77-0.13,2.17,0.65c0.37,0.73,0.7,1.47,1.05,2.21c0.41,0.87,0.82,1.73,1.22,2.6
			c0.37,0.79,0.73,1.58,1.1,2.37c0.37,0.81,0.72,1.64,1.16,2.42c0.02,0.03,0.04,0.05,0.05,0.08c0,0.01,0.01,0.01,0.01,0.02
			c0.02,0.02,0.04,0.03,0.06,0.05c0.03,0.02,0.07,0.04,0.1,0.06c0.08,0.04,0.16,0.07,0.24,0.1c0.57,0.19,1.14,0.32,1.73,0.45
			c1.93,0.39,3.86,0.73,5.79,1.12c1.97,0.39,3.94,0.79,5.91,1.19c0.43,0.09,0.8,0.29,1.06,0.64c0.25,0.34,0.35,0.77,0.29,1.18
			c-0.11,0.74-0.8,1.37-1.55,1.37C131.14,33.09,131.05,33.09,130.96,33.07z"/>
	</g>
</g>
</svg>
